<?xml version="1.0" encoding="utf-8"?>
<!-- Generator: Adobe Illustrator 16.0.0, SVG Export Plug-In . SVG Version: 6.00 Build 0)  -->
<!DOCTYPE svg PUBLIC "-//W3C//DTD SVG 1.1//EN" "http://www.w3.org/Graphics/SVG/1.1/DTD/svg11.dtd">
<svg version="1.1" id="Layer_1" xmlns="http://www.w3.org/2000/svg" xmlns:xlink="http://www.w3.org/1999/xlink" x="0px" y="0px"
	 width="60.08px" height="140.668px" viewBox="0 0 60.08 140.668" enable-background="new 0 0 60.08 140.668" xml:space="preserve">
<g>
	<path fill="#FFFFFF" d="M30.609,130.728c0.043,5.487-0.175,9.938-0.486,9.94c-0.311,0.002-0.596-4.443-0.641-9.932
		c-0.042-5.488,0.177-9.938,0.487-9.939C30.282,120.793,30.568,125.24,30.609,130.728"/>
	<path fill="#FFFFFF" d="M26.787,130.224c-0.914,5.315-1.94,9.578-2.295,9.517c-0.352-0.06,0.104-4.418,1.018-9.736
		c0.912-5.316,1.938-9.577,2.292-9.516C28.153,120.549,27.699,124.907,26.787,130.224"/>
	<path fill="#FFFFFF" d="M22.961,129.333c-1.801,4.958-3.609,8.851-4.04,8.694c-0.43-0.156,0.68-4.303,2.482-9.262
		c1.8-4.955,3.607-8.848,4.04-8.69C25.873,120.229,24.762,124.376,22.961,129.333"/>
	<path fill="#FFFFFF" d="M19.009,127.475c-2.502,4.245-4.9,7.467-5.361,7.198c-0.456-0.269,1.201-3.929,3.703-8.177
		c2.502-4.242,4.899-7.465,5.358-7.194S21.509,123.23,19.009,127.475"/>
	<path fill="#FFFFFF" d="M15.402,124.644c-3.118,3.413-6.006,5.851-6.45,5.444c-0.445-0.407,1.72-3.504,4.837-6.915
		c3.117-3.414,6.003-5.853,6.449-5.444C20.681,118.134,18.516,121.231,15.402,124.644"/>
	<path fill="#FFFFFF" d="M12.218,121.082c-3.658,2.519-6.941,4.099-7.335,3.524c-0.392-0.569,2.252-3.075,5.91-5.594
		c3.656-2.519,6.938-4.099,7.334-3.525C18.519,116.059,15.875,118.561,12.218,121.082"/>
	<path fill="#FFFFFF" d="M9.554,116.609c-4.074,1.584-7.579,2.347-7.831,1.694c-0.25-0.644,2.847-2.452,6.92-4.037
		c4.071-1.583,7.578-2.346,7.829-1.697C16.724,113.215,13.626,115.022,9.554,116.609"/>
	<path fill="#FFFFFF" d="M7.894,111.714c-4.201,0.866-7.731,0.956-7.889,0.199c-0.154-0.759,3.123-2.072,7.323-2.938
		c4.2-0.865,7.731-0.957,7.886-0.199C15.372,109.532,12.093,110.847,7.894,111.714"/>
	<path fill="#FFFFFF" d="M7.202,106.321c-3.977,0-7.2-0.715-7.201-1.604c0.001-0.883,3.224-1.602,7.199-1.604
		c3.975,0,7.2,0.715,7.2,1.604C14.401,105.598,11.176,106.318,7.202,106.321"/>
	<path fill="#FFFFFF" d="M7.476,100.425c-3.656-0.747-6.463-2.127-6.268-3.092c0.197-0.958,3.319-1.134,6.975-0.388
		c3.658,0.746,6.465,2.125,6.267,3.088C14.255,100.993,11.133,101.167,7.476,100.425"/>
	<path fill="#FFFFFF" d="M8.959,94.373c-3.197-1.308-5.468-3.149-5.072-4.122c0.396-0.968,3.309-0.697,6.507,0.609
		c3.197,1.308,5.47,3.15,5.071,4.123C15.071,95.951,12.16,95.678,8.959,94.373"/>
	<path fill="#FFFFFF" d="M11.568,88.471c-2.848-1.624-4.699-3.738-4.137-4.725c0.563-0.985,3.325-0.467,6.171,1.156
		c2.847,1.625,4.7,3.734,4.136,4.725C17.176,90.612,14.416,90.093,11.568,88.471"/>
	<path fill="#FFFFFF" d="M15.087,82.507c-2.322-1.742-3.61-3.947-2.875-4.931c0.735-0.98,3.215-0.368,5.538,1.371
		c2.324,1.744,3.614,3.945,2.875,4.933C19.892,84.86,17.415,84.245,15.087,82.507"/>
	<path fill="#FFFFFF" d="M19.281,77.021c-1.812-1.795-2.516-4.022-1.572-4.976c0.943-0.949,3.177-0.268,4.99,1.525
		c1.811,1.799,2.518,4.02,1.569,4.977C23.327,79.499,21.094,78.815,19.281,77.021"/>
	<path fill="#FFFFFF" d="M24.4,71.534c-1.162-1.215-1.263-3.01-0.221-4.009c1.043-0.995,2.83-0.817,3.994,0.397
		c1.164,1.218,1.266,3.009,0.22,4.008C27.352,72.928,25.566,72.75,24.4,71.534"/>
	<path fill="#FFFFFF" d="M29.119,0.981C29.115,0.445,29.49,0.002,29.958,0c0.469-0.003,0.851,0.429,0.854,0.968
		c0.005,0.539-0.372,0.98-0.84,0.983C29.505,1.954,29.125,1.521,29.119,0.981"/>
	<path fill="#FFFFFF" d="M32.816,1.155c0.109-0.624,0.653-1.056,1.22-0.957c0.563,0.098,0.935,0.683,0.827,1.309
		c-0.108,0.627-0.652,1.053-1.22,0.958C33.082,2.367,32.708,1.782,32.816,1.155"/>
	<path fill="#FFFFFF" d="M36.74,2.097c0.271-0.746,0.94-1.186,1.5-0.982c0.556,0.201,0.789,0.97,0.518,1.716
		c-0.271,0.745-0.941,1.188-1.499,0.985C36.7,3.613,36.468,2.843,36.74,2.097"/>
	<path fill="#FFFFFF" d="M40.641,3.905c0.479-0.81,1.343-1.186,1.936-0.839c0.586,0.346,0.676,1.283,0.198,2.097
		c-0.48,0.81-1.344,1.185-1.935,0.838C40.252,5.656,40.164,4.717,40.641,3.905"/>
	<path fill="#FFFFFF" d="M44.352,6.57c0.717-0.782,1.743-1.013,2.296-0.509c0.549,0.501,0.414,1.545-0.303,2.331
		c-0.718,0.783-1.744,1.014-2.295,0.511C43.5,8.401,43.636,7.357,44.352,6.57"/>
	<path fill="#FFFFFF" d="M47.726,10.055c0.914-0.628,2.025-0.603,2.482,0.062c0.456,0.662,0.087,1.71-0.828,2.339
		c-0.913,0.629-2.022,0.604-2.479-0.062C46.444,11.731,46.815,10.686,47.726,10.055"/>
	<path fill="#FFFFFF" d="M50.48,14.582c1.073-0.416,2.168-0.176,2.445,0.538c0.276,0.714-0.367,1.63-1.439,2.046
		c-1.073,0.416-2.167,0.18-2.445-0.537C48.764,15.916,49.409,15.001,50.48,14.582"/>
	<path fill="#FFFFFF" d="M52.186,19.611c1.185-0.245,2.271,0.171,2.428,0.929c0.155,0.756-0.678,1.565-1.862,1.81
		c-1.186,0.243-2.271-0.169-2.429-0.928C50.167,20.667,51.001,19.857,52.186,19.611"/>
	<path fill="#FFFFFF" d="M52.913,25.023c1.234,0,2.234,0.718,2.234,1.605c0,0.883-1,1.602-2.232,1.602
		c-1.234-0.001-2.234-0.715-2.234-1.605C50.68,25.742,51.679,25.025,52.913,25.023"/>
	<path fill="#FFFFFF" d="M52.63,30.944c1.404,0.286,2.388,1.296,2.19,2.258c-0.195,0.958-1.494,1.506-2.9,1.22
		c-1.404-0.289-2.388-1.295-2.189-2.26C49.925,31.203,51.222,30.657,52.63,30.944"/>
	<path fill="#FFFFFF" d="M51.038,36.972c1.368,0.561,2.156,1.8,1.761,2.771c-0.396,0.966-1.826,1.301-3.196,0.743
		c-1.369-0.561-2.158-1.798-1.761-2.772C48.237,36.746,49.667,36.415,51.038,36.972"/>
	<path fill="#FFFFFF" d="M48.437,42.878c1.381,0.789,2.043,2.226,1.48,3.213c-0.563,0.983-2.136,1.145-3.515,0.358
		c-1.38-0.788-2.046-2.221-1.481-3.211C45.484,42.254,47.057,42.094,48.437,42.878"/>
	<path fill="#FFFFFF" d="M44.814,48.77c1.26,0.943,1.686,2.503,0.948,3.488c-0.734,0.98-2.351,1.011-3.611,0.068
		c-1.26-0.945-1.688-2.5-0.947-3.488C41.937,47.858,43.552,47.829,44.814,48.77"/>
	<path fill="#FFFFFF" d="M40.729,54.338c1.118,1.11,1.26,2.78,0.317,3.733c-0.943,0.953-2.614,0.826-3.734-0.284
		c-1.118-1.109-1.265-2.775-0.318-3.731C37.937,53.104,39.607,53.232,40.729,54.338"/>
	<path fill="#FFFFFF" d="M35.591,59.809c1.162,1.217,1.263,3.011,0.221,4.009c-1.042,0.995-2.83,0.82-3.994-0.398
		c-1.163-1.216-1.266-3.008-0.22-4.008C32.639,58.415,34.425,58.593,35.591,59.809"/>
	<path fill="#FFFFFF" d="M33.295,130.224c0.913,5.315,1.938,9.578,2.292,9.517c0.354-0.06-0.102-4.418-1.016-9.736
		c-0.913-5.314-1.938-9.576-2.292-9.516C31.928,120.549,32.382,124.907,33.295,130.224"/>
	<path fill="#FFFFFF" d="M37.119,129.333c1.802,4.958,3.61,8.851,4.041,8.694c0.43-0.156-0.682-4.303-2.481-9.262
		c-1.801-4.955-3.608-8.848-4.039-8.69C34.208,120.229,35.318,124.376,37.119,129.333"/>
	<path fill="#FFFFFF" d="M41.072,127.475c2.501,4.245,4.9,7.467,5.359,7.198c0.457-0.269-1.199-3.929-3.701-8.175
		c-2.502-4.244-4.901-7.467-5.36-7.196C36.913,119.573,38.571,123.23,41.072,127.475"/>
	<path fill="#FFFFFF" d="M44.679,124.644c3.117,3.413,6.005,5.853,6.451,5.444c0.444-0.407-1.722-3.504-4.838-6.914
		c-3.117-3.415-6.003-5.852-6.449-5.445C39.4,118.135,41.564,121.231,44.679,124.644"/>
	<path fill="#FFFFFF" d="M47.863,121.082c3.657,2.519,6.94,4.099,7.336,3.524c0.392-0.569-2.254-3.075-5.91-5.594
		c-3.658-2.519-6.94-4.099-7.334-3.525C41.561,116.059,44.207,118.561,47.863,121.082"/>
	<path fill="#FFFFFF" d="M50.527,116.61c4.074,1.584,7.578,2.346,7.832,1.693c0.25-0.644-2.848-2.452-6.92-4.037
		c-4.074-1.583-7.578-2.346-7.83-1.696C43.358,113.215,46.455,115.022,50.527,116.61"/>
	<path fill="#FFFFFF" d="M52.187,111.714c4.201,0.866,7.731,0.956,7.888,0.199c0.154-0.759-3.123-2.072-7.321-2.938
		c-4.201-0.865-7.731-0.957-7.888-0.197C44.709,109.532,47.988,110.847,52.187,111.714"/>
	<path fill="#FFFFFF" d="M52.878,106.321c3.979,0,7.2-0.715,7.201-1.604c-0.001-0.883-3.222-1.602-7.199-1.604
		c-3.976,0-7.198,0.715-7.198,1.604C45.681,105.598,48.902,106.318,52.878,106.321"/>
	<path fill="#FFFFFF" d="M52.604,100.425c3.656-0.747,6.464-2.127,6.269-3.092c-0.197-0.958-3.319-1.134-6.975-0.388
		c-3.658,0.746-6.465,2.125-6.268,3.09C45.826,100.993,48.947,101.167,52.604,100.425"/>
	<path fill="#FFFFFF" d="M51.121,94.375c3.198-1.31,5.47-3.151,5.073-4.124c-0.396-0.968-3.31-0.695-6.507,0.609
		c-3.198,1.308-5.47,3.149-5.071,4.123C45.011,95.951,47.922,95.677,51.121,94.375"/>
	<path fill="#FFFFFF" d="M48.513,88.471c2.847-1.624,4.698-3.738,4.135-4.725c-0.563-0.985-3.323-0.467-6.169,1.156
		c-2.848,1.625-4.7,3.735-4.136,4.725C42.905,90.612,45.666,90.093,48.513,88.471"/>
	<path fill="#FFFFFF" d="M44.992,82.507c2.324-1.742,3.612-3.947,2.877-4.931c-0.736-0.979-3.216-0.368-5.538,1.373
		c-2.323,1.742-3.615,3.943-2.876,4.931C40.189,84.862,42.667,84.245,44.992,82.507"/>
	<path fill="#FFFFFF" d="M40.799,77.021c1.812-1.795,2.517-4.022,1.572-4.976c-0.942-0.949-3.176-0.268-4.989,1.525
		c-1.811,1.799-2.518,4.02-1.569,4.977C36.753,79.499,38.987,78.815,40.799,77.021"/>
	<path fill="#FFFFFF" d="M35.679,71.537c1.165-1.218,1.264-3.013,0.223-4.012c-1.043-0.995-2.83-0.817-3.994,0.399
		c-1.164,1.217-1.267,3.008-0.221,4.009C32.728,72.928,34.513,72.75,35.679,71.537"/>
	<path fill="#FFFFFF" d="M27.237,1.138c-0.11-0.625-0.654-1.056-1.22-0.956c-0.563,0.097-0.937,0.682-0.827,1.308
		c0.108,0.627,0.653,1.053,1.219,0.957C26.972,2.349,27.345,1.764,27.237,1.138"/>
	<path fill="#FFFFFF" d="M23.314,2.081c-0.271-0.746-0.942-1.187-1.503-0.983c-0.554,0.203-0.788,0.971-0.516,1.717
		c0.271,0.745,0.941,1.189,1.5,0.984C23.353,3.598,23.584,2.827,23.314,2.081"/>
	<path fill="#FFFFFF" d="M19.412,3.889c-0.479-0.812-1.344-1.188-1.936-0.839C16.89,3.396,16.8,4.333,17.279,5.145
		c0.479,0.811,1.342,1.186,1.934,0.839C19.799,5.638,19.889,4.701,19.412,3.889"/>
	<path fill="#FFFFFF" d="M15.7,6.554c-0.717-0.784-1.741-1.015-2.295-0.511c-0.55,0.503-0.415,1.546,0.303,2.332
		c0.718,0.784,1.742,1.013,2.295,0.51C16.553,8.384,16.417,7.34,15.7,6.554"/>
	<path fill="#FFFFFF" d="M12.326,10.038c-0.914-0.628-2.024-0.602-2.482,0.063c-0.456,0.662-0.087,1.709,0.827,2.339
		c0.915,0.629,2.025,0.604,2.482-0.062C13.61,11.714,13.239,10.668,12.326,10.038"/>
	<path fill="#FFFFFF" d="M9.572,14.564c-1.073-0.416-2.167-0.176-2.444,0.539c-0.276,0.713,0.366,1.63,1.439,2.046
		c1.073,0.417,2.167,0.18,2.445-0.538C11.289,15.899,10.644,14.984,9.572,14.564"/>
	<path fill="#FFFFFF" d="M7.867,19.594c-1.186-0.245-2.272,0.171-2.429,0.929c-0.153,0.756,0.679,1.566,1.864,1.81
		c1.184,0.243,2.271-0.17,2.427-0.928C9.885,20.651,9.051,19.84,7.867,19.594"/>
	<path fill="#FFFFFF" d="M7.141,25.005c-1.234,0-2.235,0.718-2.235,1.605c0,0.884,0.999,1.602,2.232,1.602
		c1.232,0,2.233-0.715,2.233-1.604C9.373,25.727,8.373,25.007,7.141,25.005"/>
	<path fill="#FFFFFF" d="M7.423,30.926c-1.405,0.288-2.389,1.297-2.191,2.258c0.195,0.958,1.494,1.507,2.898,1.221
		c1.407-0.29,2.39-1.295,2.191-2.259C10.127,31.185,8.83,30.64,7.423,30.926"/>
	<path fill="#FFFFFF" d="M9.016,36.956c-1.368,0.561-2.157,1.799-1.762,2.771c0.396,0.966,1.826,1.301,3.196,0.743
		c1.368-0.562,2.158-1.798,1.76-2.772C11.815,36.729,10.385,36.398,9.016,36.956"/>
	<path fill="#FFFFFF" d="M11.615,42.862c-1.38,0.791-2.043,2.226-1.479,3.212c0.562,0.983,2.135,1.146,3.515,0.359
		c1.379-0.788,2.045-2.222,1.48-3.211C14.569,42.238,12.996,42.078,11.615,42.862"/>
	<path fill="#FFFFFF" d="M15.238,48.752c-1.26,0.944-1.684,2.504-0.948,3.488c0.735,0.98,2.351,1.012,3.612,0.07
		c1.259-0.946,1.687-2.501,0.947-3.49C18.115,47.841,16.5,47.812,15.238,48.752"/>
	<path fill="#FFFFFF" d="M19.325,54.322c-1.118,1.109-1.262,2.78-0.318,3.732c0.944,0.953,2.615,0.827,3.735-0.282
		c1.116-1.111,1.264-2.776,0.316-3.733C22.117,53.09,20.445,53.215,19.325,54.322"/>
	<path fill="#FFFFFF" d="M24.46,59.792c-1.163,1.217-1.263,3.011-0.219,4.009c1.042,0.995,2.829,0.82,3.993-0.397
		c1.163-1.217,1.267-3.007,0.22-4.008C27.414,58.398,25.627,58.577,24.46,59.792"/>
</g>
</svg>
