<?xml version="1.0" encoding="utf-8"?>
<!-- Generator: Adobe Illustrator 16.0.0, SVG Export Plug-In . SVG Version: 6.00 Build 0)  -->
<!DOCTYPE svg PUBLIC "-//W3C//DTD SVG 1.1//EN" "http://www.w3.org/Graphics/SVG/1.1/DTD/svg11.dtd">
<svg version="1.1" id="Layer_1" xmlns="http://www.w3.org/2000/svg" xmlns:xlink="http://www.w3.org/1999/xlink" x="0px" y="0px"
	 width="164.139px" height="61.655px" viewBox="0 0 164.139 61.655" enable-background="new 0 0 164.139 61.655"
	 xml:space="preserve">
<g>
	<g>
		<path fill="#82BC00" d="M13.87,57.298c0.019,2.405-0.077,4.356-0.213,4.357c-0.136,0-0.261-1.948-0.281-4.353
			c-0.019-2.406,0.078-4.356,0.214-4.356C13.727,52.943,13.852,54.892,13.87,57.298"/>
	</g>
	<g>
		<path fill="#00C1DE" d="M12.195,57.077c-0.401,2.33-0.851,4.198-1.006,4.171c-0.154-0.026,0.045-1.937,0.446-4.268
			c0.4-2.33,0.849-4.198,1.005-4.17C12.793,52.836,12.594,54.746,12.195,57.077"/>
	</g>
	<g>
		<path fill="#00C1DE" d="M10.518,56.687c-0.789,2.173-1.582,3.879-1.771,3.811c-0.188-0.068,0.298-1.886,1.088-4.059
			c0.789-2.172,1.581-3.878,1.771-3.809C11.794,52.696,11.308,54.514,10.518,56.687"/>
	</g>
	<g>
		<path fill="#00C1DE" d="M8.786,55.872c-1.097,1.86-2.148,3.272-2.35,3.155c-0.2-0.118,0.526-1.722,1.623-3.583
			c1.097-1.859,2.147-3.272,2.349-3.153C10.609,52.408,9.882,54.011,8.786,55.872"/>
	</g>
	<g>
		<path fill="#00C1DE" d="M7.205,54.631c-1.367,1.496-2.632,2.564-2.827,2.386c-0.195-0.179,0.754-1.536,2.12-3.031
			c1.366-1.496,2.631-2.565,2.827-2.386C9.519,51.778,8.57,53.135,7.205,54.631"/>
	</g>
	<g>
		<path fill="#00C1DE" d="M5.81,53.07c-1.604,1.104-3.042,1.796-3.215,1.544c-0.172-0.25,0.987-1.348,2.59-2.452
			c1.603-1.104,3.041-1.796,3.214-1.545C8.571,50.868,7.412,51.965,5.81,53.07"/>
	</g>
	<g>
		<path fill="#00C1DE" d="M4.642,51.109c-1.786,0.694-3.322,1.028-3.432,0.743c-0.109-0.282,1.248-1.075,3.033-1.77
			c1.785-0.694,3.322-1.028,3.432-0.744C7.784,49.622,6.427,50.414,4.642,51.109"/>
	</g>
	<g>
		<path fill="#00C1DE" d="M3.914,48.964c-1.841,0.38-3.389,0.419-3.458,0.087c-0.067-0.333,1.369-0.908,3.21-1.288
			c1.841-0.379,3.389-0.419,3.456-0.087C7.191,48.007,5.754,48.584,3.914,48.964"/>
	</g>
	<g>
		<path fill="#00C1DE" d="M3.611,46.6c-1.743,0-3.156-0.313-3.156-0.703c0-0.387,1.413-0.702,3.155-0.704
			c1.742,0,3.156,0.313,3.156,0.704C6.766,46.283,5.353,46.599,3.611,46.6"/>
	</g>
	<g>
		<path fill="#00C1DE" d="M3.731,44.016c-1.603-0.328-2.833-0.932-2.747-1.355c0.086-0.42,1.455-0.497,3.057-0.17
			c1.603,0.327,2.833,0.931,2.747,1.354C6.702,44.265,5.334,44.341,3.731,44.016"/>
	</g>
	<g>
		<path fill="#00C1DE" d="M4.381,41.363c-1.401-0.573-2.397-1.381-2.224-1.807c0.174-0.424,1.45-0.306,2.852,0.267
			c1.401,0.574,2.397,1.381,2.223,1.808C7.06,42.055,5.784,41.936,4.381,41.363"/>
	</g>
	<g>
		<path fill="#00C1DE" d="M5.524,38.777c-1.248-0.712-2.06-1.638-1.813-2.071c0.247-0.432,1.457-0.205,2.705,0.507
			c1.248,0.712,2.06,1.637,1.813,2.071C7.982,39.715,6.772,39.488,5.524,38.777"/>
	</g>
	<g>
		<path fill="#00C1DE" d="M7.067,36.163c-1.018-0.764-1.583-1.73-1.26-2.161c0.323-0.43,1.409-0.162,2.428,0.601
			c1.019,0.764,1.584,1.729,1.26,2.162C9.173,37.194,8.087,36.924,7.067,36.163"/>
	</g>
	<g>
		<path fill="#00C1DE" d="M8.905,33.758c-0.794-0.787-1.103-1.764-0.689-2.181c0.414-0.416,1.392-0.117,2.187,0.669
			c0.794,0.788,1.104,1.762,0.688,2.181C10.678,34.844,9.7,34.544,8.905,33.758"/>
	</g>
	<g>
		<path fill="#00C1DE" d="M11.148,31.353c-0.509-0.532-0.553-1.319-0.097-1.757c0.457-0.437,1.241-0.358,1.751,0.174
			c0.51,0.534,0.555,1.319,0.096,1.757C12.442,31.964,11.66,31.886,11.148,31.353"/>
	</g>
	<g>
		<path fill="#00C1DE" d="M13.217,0.43C13.215,0.195,13.379,0.001,13.585,0c0.206-0.001,0.373,0.188,0.375,0.424
			s-0.163,0.429-0.368,0.431S13.219,0.667,13.217,0.43"/>
	</g>
	<g>
		<path fill="#00C1DE" d="M14.837,0.506c0.048-0.274,0.286-0.463,0.535-0.42c0.247,0.043,0.41,0.3,0.362,0.574
			s-0.286,0.461-0.535,0.42C14.954,1.037,14.79,0.781,14.837,0.506"/>
	</g>
	<g>
		<path fill="#00C1DE" d="M16.557,0.919c0.119-0.327,0.412-0.52,0.657-0.43c0.244,0.088,0.346,0.425,0.227,0.752
			s-0.413,0.521-0.657,0.432C16.54,1.583,16.438,1.246,16.557,0.919"/>
	</g>
	<g>
		<path fill="#00C1DE" d="M18.267,1.711c0.21-0.355,0.588-0.52,0.848-0.368c0.257,0.151,0.296,0.562,0.087,0.919
			c-0.21,0.355-0.589,0.52-0.848,0.368C18.097,2.479,18.058,2.067,18.267,1.711"/>
	</g>
	<g>
		<path fill="#00C1DE" d="M19.894,2.879c0.314-0.343,0.764-0.444,1.006-0.223c0.241,0.219,0.182,0.677-0.133,1.021
			c-0.314,0.343-0.764,0.444-1.006,0.224C19.521,3.682,19.58,3.225,19.894,2.879"/>
	</g>
	<g>
		<path fill="#00C1DE" d="M21.373,4.407c0.4-0.275,0.888-0.264,1.088,0.027c0.2,0.29,0.038,0.749-0.363,1.025
			c-0.4,0.275-0.887,0.265-1.087-0.027C20.811,5.142,20.973,4.684,21.373,4.407"/>
	</g>
	<g>
		<path fill="#00C1DE" d="M22.58,6.391c0.47-0.183,0.95-0.077,1.072,0.236c0.121,0.313-0.161,0.714-0.631,0.896
			c-0.471,0.183-0.95,0.079-1.072-0.235C21.828,6.976,22.11,6.575,22.58,6.391"/>
	</g>
	<g>
		<path fill="#00C1DE" d="M23.327,8.595c0.519-0.107,0.995,0.075,1.064,0.407c0.068,0.332-0.297,0.686-0.816,0.793
			c-0.52,0.106-0.996-0.074-1.064-0.407C22.442,9.058,22.808,8.703,23.327,8.595"/>
	</g>
	<g>
		<path fill="#00C1DE" d="M23.646,10.967c0.541,0,0.979,0.315,0.979,0.704c0,0.387-0.438,0.702-0.979,0.702
			c-0.541,0-0.979-0.313-0.979-0.704C22.667,11.283,23.105,10.968,23.646,10.967"/>
	</g>
	<g>
		<path fill="#00C1DE" d="M23.522,13.563c0.615,0.125,1.046,0.568,0.96,0.99c-0.085,0.42-0.655,0.66-1.271,0.535
			c-0.616-0.126-1.047-0.567-0.96-0.99C22.336,13.676,22.905,13.437,23.522,13.563"/>
	</g>
	<g>
		<path fill="#00C1DE" d="M22.824,16.205c0.6,0.246,0.945,0.789,0.772,1.215c-0.174,0.423-0.801,0.57-1.401,0.326
			c-0.6-0.246-0.946-0.788-0.772-1.215C21.596,16.106,22.223,15.96,22.824,16.205"/>
	</g>
	<g>
		<path fill="#00C1DE" d="M21.684,18.793c0.605,0.346,0.896,0.976,0.649,1.408c-0.247,0.431-0.936,0.502-1.541,0.157
			c-0.605-0.345-0.897-0.973-0.649-1.407C20.39,18.52,21.079,18.45,21.684,18.793"/>
	</g>
	<g>
		<path fill="#00C1DE" d="M20.096,21.376c0.552,0.413,0.739,1.097,0.416,1.528c-0.322,0.43-1.03,0.443-1.583,0.03
			c-0.552-0.415-0.74-1.096-0.415-1.529C18.835,20.976,19.543,20.963,20.096,21.376"/>
	</g>
	<g>
		<path fill="#00C1DE" d="M18.306,23.816c0.49,0.486,0.552,1.218,0.139,1.636c-0.414,0.417-1.146,0.362-1.637-0.125
			c-0.49-0.486-0.555-1.216-0.14-1.635C17.082,23.275,17.814,23.332,18.306,23.816"/>
	</g>
	<g>
		<path fill="#00C1DE" d="M16.054,26.214c0.509,0.533,0.554,1.319,0.097,1.757c-0.457,0.436-1.24,0.359-1.75-0.174
			c-0.51-0.533-0.555-1.318-0.096-1.757C14.76,25.603,15.542,25.681,16.054,26.214"/>
	</g>
	<g>
		<path fill="#82BC00" d="M15.047,57.077c0.4,2.33,0.85,4.198,1.005,4.171c0.155-0.026-0.045-1.937-0.445-4.268
			c-0.4-2.329-0.85-4.197-1.004-4.17C14.448,52.836,14.647,54.746,15.047,57.077"/>
	</g>
	<g>
		<path fill="#82BC00" d="M16.723,56.687c0.79,2.173,1.583,3.879,1.771,3.811c0.188-0.068-0.298-1.886-1.087-4.059
			c-0.789-2.172-1.582-3.878-1.771-3.809C15.447,52.696,15.934,54.514,16.723,56.687"/>
	</g>
	<g>
		<path fill="#82BC00" d="M18.456,55.872c1.096,1.86,2.147,3.272,2.349,3.155c0.201-0.118-0.525-1.722-1.622-3.583
			c-1.097-1.86-2.148-3.272-2.35-3.154C16.633,52.408,17.36,54.011,18.456,55.872"/>
	</g>
	<g>
		<path fill="#82BC00" d="M20.037,54.631c1.366,1.496,2.632,2.565,2.828,2.386c0.194-0.179-0.755-1.536-2.121-3.031
			c-1.366-1.497-2.631-2.564-2.827-2.387C17.723,51.778,18.671,53.135,20.037,54.631"/>
	</g>
	<g>
		<path fill="#82BC00" d="M21.432,53.07c1.603,1.104,3.042,1.796,3.215,1.544c0.172-0.25-0.988-1.348-2.59-2.452
			c-1.603-1.104-3.042-1.796-3.214-1.545C18.67,50.868,19.83,51.965,21.432,53.07"/>
	</g>
	<g>
		<path fill="#82BC00" d="M22.6,51.11c1.786,0.694,3.321,1.028,3.433,0.742c0.109-0.282-1.248-1.075-3.033-1.77
			c-1.786-0.694-3.322-1.028-3.432-0.744C19.458,49.622,20.815,50.414,22.6,51.11"/>
	</g>
	<g>
		<path fill="#82BC00" d="M23.328,48.964c1.841,0.38,3.389,0.419,3.457,0.087c0.068-0.333-1.369-0.908-3.209-1.288
			c-1.841-0.379-3.389-0.419-3.457-0.086C20.05,48.007,21.487,48.584,23.328,48.964"/>
	</g>
	<g>
		<path fill="#82BC00" d="M23.631,46.6c1.744,0,3.156-0.313,3.156-0.703c0-0.387-1.412-0.702-3.156-0.704
			c-1.742,0-3.155,0.313-3.155,0.704C20.476,46.283,21.888,46.599,23.631,46.6"/>
	</g>
	<g>
		<path fill="#82BC00" d="M23.51,44.016c1.603-0.328,2.833-0.932,2.748-1.355c-0.086-0.42-1.455-0.497-3.057-0.17
			c-1.604,0.327-2.834,0.931-2.747,1.354C20.54,44.265,21.907,44.341,23.51,44.016"/>
	</g>
	<g>
		<path fill="#82BC00" d="M22.86,41.364c1.402-0.574,2.397-1.382,2.224-1.808c-0.174-0.424-1.451-0.305-2.852,0.267
			c-1.402,0.574-2.397,1.381-2.223,1.808C20.183,42.055,21.458,41.935,22.86,41.364"/>
	</g>
	<g>
		<path fill="#82BC00" d="M21.717,38.777c1.248-0.712,2.06-1.638,1.813-2.071c-0.247-0.432-1.457-0.205-2.704,0.507
			c-1.248,0.712-2.06,1.638-1.813,2.071C19.259,39.715,20.469,39.488,21.717,38.777"/>
	</g>
	<g>
		<path fill="#82BC00" d="M20.174,36.163c1.019-0.764,1.583-1.73,1.261-2.161c-0.323-0.43-1.41-0.162-2.427,0.602
			c-1.019,0.763-1.585,1.729-1.261,2.161C18.069,37.194,19.155,36.924,20.174,36.163"/>
	</g>
	<g>
		<path fill="#82BC00" d="M18.336,33.758c0.794-0.787,1.103-1.764,0.689-2.181c-0.413-0.417-1.392-0.118-2.187,0.668
			c-0.793,0.788-1.104,1.762-0.688,2.181C16.563,34.844,17.542,34.544,18.336,33.758"/>
	</g>
	<g>
		<path fill="#82BC00" d="M16.092,31.354c0.511-0.534,0.554-1.321,0.098-1.759c-0.457-0.436-1.24-0.358-1.75,0.175
			c-0.51,0.534-0.555,1.319-0.097,1.757C14.799,31.964,15.581,31.886,16.092,31.354"/>
	</g>
	<g>
		<path fill="#82BC00" d="M12.392,0.499c-0.048-0.274-0.287-0.463-0.535-0.419c-0.247,0.043-0.411,0.299-0.362,0.574
			c0.047,0.274,0.286,0.461,0.534,0.419C12.276,1.03,12.439,0.773,12.392,0.499"/>
	</g>
	<g>
		<path fill="#82BC00" d="M10.673,0.912c-0.119-0.327-0.413-0.521-0.659-0.431C9.771,0.57,9.668,0.907,9.788,1.233
			c0.118,0.327,0.413,0.521,0.657,0.432C10.69,1.577,10.791,1.239,10.673,0.912"/>
	</g>
	<g>
		<path fill="#82BC00" d="M8.962,1.705c-0.21-0.356-0.589-0.521-0.849-0.368C7.857,1.488,7.818,1.899,8.027,2.255
			c0.21,0.355,0.588,0.52,0.848,0.368C9.132,2.471,9.171,2.061,8.962,1.705"/>
	</g>
	<g>
		<path fill="#82BC00" d="M7.335,2.873C7.021,2.529,6.572,2.428,6.33,2.648C6.088,2.869,6.147,3.326,6.462,3.671
			c0.314,0.344,0.763,0.444,1.006,0.224C7.709,3.675,7.65,3.217,7.335,2.873"/>
	</g>
	<g>
		<path fill="#82BC00" d="M5.856,4.399c-0.4-0.275-0.887-0.264-1.088,0.028c-0.2,0.29-0.038,0.749,0.362,1.025
			c0.401,0.276,0.888,0.265,1.088-0.027C6.419,5.134,6.257,4.676,5.856,4.399"/>
	</g>
	<g>
		<path fill="#82BC00" d="M4.649,6.383C4.179,6.201,3.7,6.306,3.578,6.62C3.457,6.932,3.739,7.334,4.209,7.516
			c0.47,0.183,0.95,0.079,1.072-0.236C5.402,6.968,5.12,6.567,4.649,6.383"/>
	</g>
	<g>
		<path fill="#82BC00" d="M3.902,8.588C3.382,8.48,2.906,8.663,2.837,8.996C2.771,9.327,3.135,9.682,3.655,9.789
			C4.173,9.895,4.65,9.714,4.718,9.382C4.787,9.051,4.421,8.696,3.902,8.588"/>
	</g>
	<g>
		<path fill="#82BC00" d="M3.584,10.96c-0.541,0-0.979,0.314-0.979,0.703c0,0.388,0.438,0.702,0.979,0.702
			c0.54,0,0.979-0.313,0.979-0.703C4.562,11.276,4.124,10.96,3.584,10.96"/>
	</g>
	<g>
		<path fill="#82BC00" d="M3.708,13.555c-0.616,0.126-1.047,0.569-0.96,0.99c0.085,0.42,0.655,0.661,1.27,0.535
			c0.617-0.127,1.047-0.567,0.96-0.99C4.893,13.668,4.324,13.43,3.708,13.555"/>
	</g>
	<g>
		<path fill="#82BC00" d="M4.406,16.198c-0.6,0.246-0.945,0.788-0.772,1.214c0.174,0.423,0.8,0.57,1.401,0.326
			c0.6-0.247,0.946-0.788,0.771-1.215C5.633,16.099,5.006,15.953,4.406,16.198"/>
	</g>
	<g>
		<path fill="#82BC00" d="M5.545,18.786c-0.605,0.347-0.896,0.976-0.648,1.408c0.246,0.431,0.936,0.502,1.541,0.157
			c0.604-0.345,0.896-0.974,0.649-1.407C6.84,18.513,6.15,18.442,5.545,18.786"/>
	</g>
	<g>
		<path fill="#82BC00" d="M7.133,21.368c-0.552,0.414-0.738,1.097-0.416,1.529c0.322,0.43,1.03,0.443,1.583,0.031
			c0.552-0.415,0.739-1.096,0.416-1.53C8.394,20.969,7.687,20.956,7.133,21.368"/>
	</g>
	<g>
		<path fill="#82BC00" d="M8.924,23.809c-0.49,0.486-0.553,1.218-0.14,1.636c0.414,0.417,1.146,0.362,1.637-0.124
			c0.489-0.487,0.554-1.217,0.139-1.636C10.148,23.269,9.415,23.324,8.924,23.809"/>
	</g>
	<g>
		<path fill="#82BC00" d="M11.175,26.207c-0.51,0.533-0.554,1.319-0.096,1.757c0.457,0.437,1.24,0.36,1.75-0.174
			c0.51-0.533,0.555-1.318,0.096-1.757C12.47,25.596,11.687,25.674,11.175,26.207"/>
	</g>
</g>
<g>
	<path fill="#AEA299" d="M37.305,15.146c0-0.618,0.49-1.127,1.127-1.127h0.236c0.545,0,0.854,0.272,1.163,0.654l6.36,8.232v-7.814
		c0-0.6,0.49-1.09,1.09-1.09c0.618,0,1.109,0.49,1.109,1.09v10.686c0,0.618-0.473,1.109-1.091,1.109h-0.091
		c-0.527,0-0.854-0.273-1.163-0.673l-6.542-8.469v8.069c0,0.6-0.491,1.09-1.091,1.09c-0.618,0-1.108-0.49-1.108-1.09V15.146z"/>
	<path fill="#AEA299" d="M56.642,25.686V15.218c0-0.636,0.49-1.127,1.127-1.127h7.396c0.545,0,0.999,0.455,0.999,1
		c0,0.563-0.454,1-0.999,1h-6.288v3.307h5.47c0.545,0,1,0.455,1,1.018c0,0.546-0.455,0.982-1,0.982h-5.47v3.416h6.379
		c0.545,0,0.999,0.454,0.999,1c0,0.563-0.454,0.999-0.999,0.999h-7.487C57.132,26.813,56.642,26.322,56.642,25.686z"/>
	<path fill="#AEA299" d="M76.942,16.164h-3.09c-0.581,0-1.036-0.473-1.036-1.036s0.455-1.036,1.036-1.036h8.45
		c0.563,0,1.019,0.473,1.019,1.036s-0.455,1.036-1.019,1.036h-3.107v9.632c0,0.618-0.509,1.108-1.127,1.108
		c-0.617,0-1.126-0.49-1.126-1.108V16.164z"/>
	<path fill="#AEA299" d="M89.792,15.527c-0.055-0.127-0.091-0.29-0.091-0.436c0-0.618,0.526-1.09,1.145-1.09
		c0.545,0,0.963,0.345,1.108,0.817l2.926,8.741l2.872-8.705c0.182-0.527,0.563-0.891,1.126-0.891h0.164
		c0.563,0,0.963,0.363,1.127,0.891l2.871,8.705l2.926-8.76c0.163-0.454,0.545-0.799,1.091-0.799c0.6,0,1.108,0.472,1.108,1.072
		c0,0.145-0.055,0.326-0.109,0.453l-3.762,10.541c-0.2,0.563-0.618,0.927-1.163,0.927h-0.218c-0.546,0-0.945-0.345-1.146-0.927
		l-2.835-8.305l-2.835,8.305c-0.2,0.582-0.618,0.927-1.163,0.927h-0.218c-0.545,0-0.945-0.345-1.163-0.927L89.792,15.527z"/>
	<path fill="#AEA299" d="M114.525,20.489v-0.036c0-3.58,2.763-6.579,6.67-6.579s6.633,2.962,6.633,6.542v0.037
		c0,3.58-2.763,6.578-6.67,6.578S114.525,24.069,114.525,20.489z M125.483,20.489v-0.036c0-2.472-1.799-4.525-4.325-4.525
		c-2.525,0-4.288,2.018-4.288,4.488v0.037c0,2.471,1.799,4.507,4.325,4.507C123.72,24.959,125.483,22.96,125.483,20.489z"/>
	<path fill="#AEA299" d="M135.534,15.218c0-0.636,0.49-1.127,1.127-1.127h4.543c1.6,0,2.854,0.473,3.671,1.272
		c0.673,0.69,1.054,1.636,1.054,2.744v0.036c0,2.035-1.181,3.271-2.889,3.799l2.435,3.07c0.218,0.273,0.363,0.51,0.363,0.855
		c0,0.617-0.526,1.035-1.072,1.035c-0.509,0-0.836-0.236-1.09-0.582l-3.09-3.943h-2.816v3.417c0,0.618-0.491,1.108-1.108,1.108
		c-0.637,0-1.127-0.49-1.127-1.108V15.218z M141.04,20.398c1.6,0,2.617-0.836,2.617-2.127v-0.035c0-1.363-0.981-2.109-2.635-2.109
		h-3.253v4.271H141.04z"/>
	<path fill="#AEA299" d="M153.671,15.109c0-0.617,0.49-1.107,1.127-1.107c0.617,0,1.108,0.49,1.108,1.107v5.38l6.033-6.069
		c0.255-0.273,0.527-0.418,0.927-0.418c0.618,0,1.036,0.49,1.036,1.035c0,0.346-0.146,0.6-0.399,0.836l-3.962,3.816l4.288,5.324
		c0.183,0.236,0.31,0.455,0.31,0.801c0,0.617-0.491,1.09-1.127,1.09c-0.437,0-0.709-0.219-0.945-0.527l-4.089-5.215l-2.071,1.998
		v2.636c0,0.618-0.491,1.108-1.108,1.108c-0.637,0-1.127-0.49-1.127-1.108V15.109z"/>
</g>
<g>
	<path fill="#AEA299" d="M56.691,33.996c-0.037-0.087-0.062-0.198-0.062-0.297c0-0.422,0.359-0.744,0.78-0.744
		c0.372,0,0.657,0.236,0.756,0.558l1.995,5.96l1.957-5.936c0.124-0.359,0.385-0.606,0.769-0.606h0.111
		c0.385,0,0.657,0.247,0.769,0.606l1.958,5.936l1.994-5.973c0.111-0.309,0.372-0.545,0.743-0.545c0.409,0,0.756,0.322,0.756,0.731
		c0,0.099-0.037,0.223-0.074,0.31l-2.564,7.187c-0.137,0.384-0.421,0.632-0.793,0.632h-0.148c-0.372,0-0.645-0.235-0.781-0.632
		l-1.933-5.663l-1.933,5.663c-0.137,0.396-0.421,0.632-0.793,0.632h-0.148c-0.372,0-0.645-0.235-0.793-0.632L56.691,33.996z"/>
	<path fill="#AEA299" d="M73.329,40.921v-7.137c0-0.434,0.334-0.768,0.769-0.768h5.042c0.372,0,0.682,0.31,0.682,0.682
		c0,0.384-0.31,0.682-0.682,0.682h-4.287v2.254h3.729c0.372,0,0.682,0.311,0.682,0.694c0,0.372-0.31,0.669-0.682,0.669h-3.729v2.329
		h4.35c0.371,0,0.682,0.311,0.682,0.682c0,0.384-0.311,0.682-0.682,0.682h-5.104C73.663,41.69,73.329,41.355,73.329,40.921z"/>
	<path fill="#AEA299" d="M84.102,33.71c0-0.421,0.334-0.756,0.769-0.756c0.421,0,0.755,0.335,0.755,0.756v6.592h3.928
		c0.385,0,0.694,0.31,0.694,0.693c0,0.385-0.31,0.694-0.694,0.694h-4.683c-0.435,0-0.769-0.335-0.769-0.769V33.71z"/>
	<path fill="#AEA299" d="M94.255,33.71c0-0.421,0.334-0.756,0.768-0.756c0.422,0,0.756,0.335,0.756,0.756v6.592h3.928
		c0.385,0,0.694,0.31,0.694,0.693c0,0.385-0.31,0.694-0.694,0.694h-4.684c-0.434,0-0.768-0.335-0.768-0.769V33.71z"/>
	<path fill="#AEA299" d="M104.409,33.736c0-0.422,0.334-0.769,0.769-0.769h0.16c0.372,0,0.583,0.187,0.793,0.446l4.337,5.612v-5.327
		c0-0.409,0.335-0.744,0.743-0.744c0.422,0,0.756,0.335,0.756,0.744v7.285c0,0.421-0.322,0.756-0.743,0.756h-0.062
		c-0.359,0-0.583-0.187-0.793-0.459l-4.461-5.773v5.501c0,0.409-0.334,0.743-0.743,0.743c-0.422,0-0.756-0.334-0.756-0.743V33.736z"
		/>
	<path fill="#AEA299" d="M116.682,40.921v-7.137c0-0.434,0.334-0.768,0.769-0.768h5.042c0.372,0,0.682,0.31,0.682,0.682
		c0,0.384-0.31,0.682-0.682,0.682h-4.287v2.254h3.729c0.372,0,0.682,0.311,0.682,0.694c0,0.372-0.31,0.669-0.682,0.669h-3.729v2.329
		h4.35c0.371,0,0.682,0.311,0.682,0.682c0,0.384-0.311,0.682-0.682,0.682h-5.104C117.016,41.69,116.682,41.355,116.682,40.921z"/>
	<path fill="#AEA299" d="M127.232,40.723c-0.173-0.124-0.297-0.334-0.297-0.582c0-0.396,0.322-0.706,0.719-0.706
		c0.211,0,0.347,0.062,0.446,0.136c0.718,0.57,1.486,0.893,2.428,0.893c0.942,0,1.537-0.446,1.537-1.091v-0.024
		c0-0.62-0.348-0.954-1.958-1.325c-1.846-0.446-2.887-0.992-2.887-2.59v-0.025c0-1.486,1.239-2.515,2.961-2.515
		c1.091,0,1.97,0.284,2.751,0.806c0.173,0.099,0.334,0.31,0.334,0.606c0,0.396-0.322,0.706-0.719,0.706
		c-0.148,0-0.272-0.037-0.396-0.111c-0.669-0.434-1.313-0.656-1.994-0.656c-0.893,0-1.413,0.458-1.413,1.028v0.024
		c0,0.67,0.396,0.967,2.069,1.363c1.834,0.445,2.775,1.103,2.775,2.54v0.024c0,1.623-1.276,2.59-3.098,2.59
		C129.314,41.814,128.199,41.442,127.232,40.723z"/>
	<path fill="#AEA299" d="M137.511,40.723c-0.174-0.124-0.298-0.334-0.298-0.582c0-0.396,0.322-0.706,0.719-0.706
		c0.211,0,0.347,0.062,0.446,0.136c0.719,0.57,1.486,0.893,2.428,0.893c0.942,0,1.537-0.446,1.537-1.091v-0.024
		c0-0.62-0.348-0.954-1.958-1.325c-1.846-0.446-2.887-0.992-2.887-2.59v-0.025c0-1.486,1.239-2.515,2.961-2.515
		c1.091,0,1.97,0.284,2.751,0.806c0.173,0.099,0.334,0.31,0.334,0.606c0,0.396-0.322,0.706-0.719,0.706
		c-0.148,0-0.272-0.037-0.396-0.111c-0.669-0.434-1.313-0.656-1.994-0.656c-0.893,0-1.413,0.458-1.413,1.028v0.024
		c0,0.67,0.396,0.967,2.069,1.363c1.834,0.445,2.775,1.103,2.775,2.54v0.024c0,1.623-1.276,2.59-3.098,2.59
		C139.592,41.814,138.477,41.442,137.511,40.723z"/>
</g>
</svg>
