<?xml version="1.0" encoding="utf-8"?>
<!-- Generator: Adobe Illustrator 16.0.0, SVG Export Plug-In . SVG Version: 6.00 Build 0)  -->
<!DOCTYPE svg PUBLIC "-//W3C//DTD SVG 1.1//EN" "http://www.w3.org/Graphics/SVG/1.1/DTD/svg11.dtd">
<svg version="1.1" id="Capa_1" xmlns="http://www.w3.org/2000/svg" xmlns:xlink="http://www.w3.org/1999/xlink" x="0px" y="0px"
	 width="467.275px" height="467.277px" viewBox="0 0 467.275 467.277" enable-background="new 0 0 467.275 467.277"
	 xml:space="preserve">
<g>
	<g>
		<path fill="#FFFFFF" d="M379.283,51.144C348.258,24.297,309.568,13.46,269.579,8.672C163.069-25.3,68.062,44.959,26.578,142.38
			c-44.712,105.002-23.436,222.217,73.516,287.698c98.98,66.846,235.021,39.369,310.941-48.627
			C494.021,285.274,473.54,132.719,379.283,51.144z M196.853,432.703c-56.157-7.992-110.636-42.543-139.091-91.805
			c-25.438-44.047-25.225-99.203-13.82-147.312c17.527-73.96,70.566-140.71,139.887-156.686c0.104,0.005,0.192,0.035,0.297,0.035
			c24.942,0.739,51.291,0.782,77.045,3.567c2.438,0.764,4.875,1.523,7.333,2.42c4.058,1.48,7.61,1.29,10.582,0.071
			c27.786,4.677,54.318,13.579,76.956,31.392c50.079,39.405,76.479,110.461,75.032,172.697
			C428.353,364.389,307.974,448.515,196.853,432.703z"/>
		<path fill="#FFFFFF" d="M169.279,211.913c23.28,0,23.28-36.104,0-36.104C145.999,175.808,145.999,211.913,169.279,211.913z"/>
		<path fill="#FFFFFF" d="M293.832,213.715c23.286,0,23.286-36.102,0-36.102C270.555,177.613,270.555,213.715,293.832,213.715z"/>
		<path fill="#FFFFFF" d="M134.855,300.253c-17.034,15.936,8.549,41.412,25.532,25.527c43.302-40.496,99.102-44.783,142.351-1.803
			c16.524,16.422,42.063-9.1,25.527-25.532C270.92,241.466,192.476,246.373,134.855,300.253z"/>
	</g>
</g>
</svg>
