<?xml version="1.0" encoding="utf-8"?>
<!-- Generator: Adobe Illustrator 16.0.0, SVG Export Plug-In . SVG Version: 6.00 Build 0)  -->
<!DOCTYPE svg PUBLIC "-//W3C//DTD SVG 1.1//EN" "http://www.w3.org/Graphics/SVG/1.1/DTD/svg11.dtd">
<svg version="1.1" id="Capa_1" xmlns="http://www.w3.org/2000/svg" xmlns:xlink="http://www.w3.org/1999/xlink" x="0px" y="0px"
	 width="477.646px" height="477.648px" viewBox="0 0 477.646 477.648" enable-background="new 0 0 477.646 477.648"
	 xml:space="preserve">
<g>
	<g>
		<path fill="#FFFFFF" d="M364.76,70.021c-4.921-0.619-9.902-0.937-14.804-0.937c-42.964,0-76.169,22.968-98.313,45.318
			c-21.308-43.45-54.604-71.354-94.714-79.054c-6.233-1.196-12.678-1.806-19.162-1.806c-48.238,0-100.477,34.576-124.212,82.215
			C-10.39,163.825-2.585,216.271,36.777,271.644c39.644,55.771,89.126,104.297,136.968,151.213l9.813,9.621
			c3.745,7.109,10.872,11.623,18.567,11.623c0,0,0,0,0.005,0c3.189,0,6.346-0.766,9.372-2.27l17.269-8.586
			c60.014-29.783,122.083-60.586,177.042-101.332c54.567-40.461,78.246-87.91,70.355-141.033
			C468.229,137.371,424.382,77.529,364.76,70.021z M437.243,220.647c-1.944,45.458-52.947,78.05-86.69,99.619
			c-46.002,29.401-95.415,54.223-143.418,78.124c-38.938-38.271-79.059-77.864-114.211-120.702
			c-25.404-30.966-63.797-77.759-51.571-121.567c11.044-39.57,51.858-81.943,95.006-81.943c2.771,0,5.564,0.18,8.29,0.533
			c49.924,6.51,71.668,56.126,79.094,78.935c-0.322,4.593,1.146,9.084,4.238,12.85c4.103,4.991,10.473,7.975,17.031,7.975
			c6.819,0,12.988-3.296,16.955-9.041c11.496-16.691,43.087-55.516,88.007-55.516c4.731,0,9.531,0.45,14.259,1.338
			C408.344,119.509,439.157,175.818,437.243,220.647z"/>
		<path fill="#FFFFFF" d="M286.747,189.806c-21.316-2.684-39.856,8.211-53.405,23.564c-8.07-19.154-22.427-35.68-43.846-39.789
			c-25.15-4.827-52.014,13.576-62.981,35.589c-12.083,24.253-4.437,47.957,10.552,69.041c19.687,27.689,44.407,51.308,68.55,75.031
			c1.277,2.916,4.72,5.108,8.422,3.266c30.866-15.381,62.345-30.36,90.167-50.979c20.779-15.406,35.39-35.576,31.412-62.377
			C332.003,218.827,312.157,193.007,286.747,189.806z"/>
	</g>
</g>
</svg>
