<?xml version="1.0" encoding="utf-8"?>
<!-- Generator: Adobe Illustrator 16.0.0, SVG Export Plug-In . SVG Version: 6.00 Build 0)  -->
<!DOCTYPE svg PUBLIC "-//W3C//DTD SVG 1.1//EN" "http://www.w3.org/Graphics/SVG/1.1/DTD/svg11.dtd">
<svg version="1.1" id="Capa_1" xmlns="http://www.w3.org/2000/svg" xmlns:xlink="http://www.w3.org/1999/xlink" x="0px" y="0px"
	 width="476.154px" height="476.154px" viewBox="0 0 476.154 476.154" enable-background="new 0 0 476.154 476.154"
	 xml:space="preserve">
<g>
	<g>
		<path fill="#FFFFFF" d="M473.26,34.062c-4.2-16.988-18.073-27.934-34.622-31.849c-1.691-0.401-3.397-0.467-5.053-0.292
			c-0.468-0.061-0.909-0.181-1.406-0.201c-84.051-3.781-298.113-0.178-382.199,0c-0.442,0-0.817,0.091-1.234,0.125
			c-0.518-0.043-0.985-0.137-1.539-0.125c-11.715,0.206-24.109,3.4-31.798,12.888c-7.881,9.734-9.841,22.018-8.384,34.22
			c0.223,1.869,0.68,3.656,1.376,5.304C8.385,72.991,8.192,91.83,7.349,110.67c-0.214,1.025-0.33,2.112-0.32,3.293
			c0.01,1.361-0.005,2.725,0.005,4.085c-0.005,0.023-0.005,0.048-0.005,0.069c0,0.025,0.005,0.045,0.005,0.074
			c0.833,106.711-6.541,208.113-4.169,314.833c0.025,0.716,0.147,1.351,0.249,2.011c-0.102,1.457-0.056,2.95,0.249,4.442
			c4.265,20.865,21.693,33.321,42.467,33.732c0.579,0.011,1.097-0.086,1.641-0.132c0.386,0.03,0.73,0.127,1.133,0.132
			c81.293,1.377,292.583,2.707,373.881,2.773c0.944,0,1.813-0.117,2.65-0.266c0.508,0.092,0.989,0.208,1.504,0.266
			c15.061,1.503,29.305-7.028,35.524-20.725c0.971-2.128,1.479-4.352,1.59-6.546c0.106-0.604,0.265-1.183,0.311-1.838
			c9.363-137.004,7.068-269.153,9.698-406.36c0.011-0.708-0.091-1.338-0.157-1.988C473.69,37.058,473.619,35.555,473.26,34.062z
			 M436.464,444.621c-0.279,0.437-0.554,0.879-0.629,1.052c-0.315,0.335-0.604,0.69-0.936,1.01
			c-0.173,0.179-0.244,0.261-0.351,0.388c-0.152,0.086-0.279,0.162-0.538,0.323c-0.381,0.234-0.792,0.428-1.193,0.636
			c0.69-0.416-0.909,0.151-1.73,0.412c-0.147,0.01-0.239,0.015-0.423,0.034c-1.351,0.076-2.695-0.07-4.031-0.202
			c-0.979-0.103-1.939-0.047-2.874,0.127c-0.433-0.035-0.827-0.127-1.279-0.127c-81.304-0.066-292.593-1.396-373.881-2.772
			c-0.584-0.011-1.098,0.086-1.641,0.132c-0.386-0.035-0.73-0.122-1.132-0.132c-4.356-0.087-6.94-0.706-10.552-3.001
			c0.305,0.106-0.701-0.793-1.371-1.371c-0.096-0.254-1.584-2.103-1.64-2.209c-0.62-1.021-1.225-2.777-1.752-4.936
			c0.015-0.325,0.075-0.609,0.07-0.95c-0.178-8.313-0.203-16.539-0.278-24.79h24.16c14.133,21.449,54.716,30.503,70.306,7.84
			c19.596,18.596,60.296,22.404,69.121-8.521c57.167,2.285,114.372,3.396,171.535,5.683c14.359,22.826,58.589,32.134,72.584,5.307
			C437.51,427.224,437.048,435.893,436.464,444.621z M90.013,378.953c0.111-0.021,0.224-0.087,0.335-0.112
			c3.016-0.299,6.951-0.314,8.911,0.016c3.342,0.568,4.668,1.229,5.901,2.32c1.279,1.143,2.005,2.844,2.635,5.449
			c0.614,2.508,0.421,6.332-0.041,9.725c-0.417,0.762-0.771,1.568-1.011,2.438c-0.167,0.64-0.376,1.265-0.574,1.895
			c-0.137,0.306-0.548,1.325-0.7,1.601c-0.229,0.427-0.519,0.816-0.792,1.224c-0.147,0.137-0.89,1.051-1.148,1.312
			c-0.142,0.146-0.493,0.426-0.813,0.675c-0.568,0.381-1.157,0.747-1.757,1.082c-0.183,0.105-0.681,0.325-1.086,0.497
			c-0.273,0.097-0.543,0.178-0.817,0.27c-10.151,0.768-19.458-1.747-25.816-10.146C71.85,385.519,78.451,380.999,90.013,378.953z
			 M154.666,380.101c0.117-0.021,0.225-0.08,0.34-0.11c3.017-0.3,6.952-0.315,8.912,0.02c3.336,0.564,4.662,1.226,5.892,2.316
			c1.285,1.147,2.011,2.843,2.641,5.448c0.614,2.509,0.421,6.336-0.041,9.725c-0.417,0.767-0.771,1.573-1.011,2.442
			c-0.163,0.635-0.371,1.259-0.574,1.889c-0.137,0.31-0.548,1.325-0.701,1.604c-0.229,0.428-0.518,0.813-0.787,1.22
			c-0.151,0.138-0.889,1.052-1.147,1.311c-0.143,0.147-0.498,0.427-0.813,0.675c-0.572,0.381-1.163,0.747-1.757,1.082
			c-0.183,0.106-0.68,0.325-1.086,0.503c-0.279,0.092-0.548,0.179-0.818,0.265c-10.155,0.771-19.464-1.747-25.815-10.146
			C136.507,386.666,143.108,382.151,154.666,380.101z M401.349,384.569c0.112-0.025,0.224-0.088,0.336-0.112
			c3.021-0.299,6.951-0.313,8.911,0.017c3.342,0.567,4.672,1.229,5.9,2.319c1.274,1.144,2.007,2.845,2.642,5.449
			c0.614,2.509,0.416,6.332-0.041,9.724c-0.422,0.762-0.777,1.569-1.011,2.438c-0.174,0.641-0.382,1.265-0.579,1.895
			c-0.138,0.305-0.548,1.325-0.695,1.601c-0.233,0.427-0.523,0.816-0.792,1.224c-0.152,0.138-0.894,1.051-1.153,1.311
			c-0.142,0.146-0.491,0.427-0.812,0.676c-0.568,0.381-1.152,0.74-1.752,1.082c-0.184,0.105-0.687,0.323-1.092,0.496
			c-0.27,0.098-0.538,0.179-0.817,0.271c-10.15,0.767-19.453-1.747-25.813-10.146C383.186,391.135,389.792,386.615,401.349,384.569z
			 M439.774,384.106c-1.701-4.561-4.188-8.517-7.257-11.821c-15.696-16.935-46.418-17.021-63.571,4.931
			c-2.63,3.367-4.509,6.688-5.829,9.938c-56.452-2.229-112.949-3.351-169.407-5.604c-1.686-5.356-4.396-9.968-7.875-13.726
			c-15.123-16.321-44.168-16.932-61.616,2.695c-0.944-1.354-1.939-2.656-3.042-3.844c-15.695-16.936-46.418-17.021-63.57,4.932
			c-2.818,3.604-4.753,7.158-6.073,10.627H30.144c0.102-38.75,1.061-77.043,2.118-115.347c53.825-0.589,107.484,3.753,161.24,5.8
			c10.994,24.592,56.117,36.566,72.763,12.385c17.574,16.691,52.09,21.459,65.43,0.006c19.591,17.179,57.463,20.443,67.217-7.708
			h38.518c2.193,0,4.083-0.462,5.708-1.239C442.48,312,441.42,347.946,439.774,384.106z M215.053,259.423
			c1.579-6.765,7.5-9.896,16.478-11.486c0.117-0.021,0.224-0.082,0.34-0.111c3.017-0.301,6.952-0.314,8.912,0.021
			c3.337,0.563,4.667,1.223,5.896,2.314c1.284,1.146,2.006,2.844,2.641,5.447c0.614,2.51,0.417,6.339-0.04,9.726
			c-0.422,0.767-0.777,1.569-1.011,2.442c-0.168,0.635-0.381,1.26-0.579,1.89c-0.137,0.31-0.543,1.325-0.695,1.604
			c-0.232,0.427-0.519,0.812-0.787,1.219c-0.157,0.137-0.898,1.051-1.158,1.31c-0.137,0.144-0.491,0.427-0.802,0.677
			c-0.574,0.381-1.163,0.746-1.763,1.082c-0.178,0.105-0.687,0.323-1.092,0.502c-0.27,0.092-0.538,0.178-0.813,0.265
			c-10.149,0.771-19.458-1.747-25.811-10.146c-0.103-0.817-0.071-1.519-0.091-2.266C215.038,262.454,215.16,260.94,215.053,259.423z
			 M296.189,249.089c0.122-0.021,0.224-0.081,0.345-0.105c3.017-0.306,6.947-0.32,8.907,0.015c3.336,0.563,4.672,1.229,5.896,2.321
			c1.284,1.142,2.006,2.843,2.641,5.447c0.614,2.504,0.416,6.332-0.041,9.726c-0.421,0.762-0.771,1.567-1.005,2.438
			c-0.168,0.639-0.381,1.264-0.579,1.894c-0.143,0.305-0.554,1.325-0.695,1.6c-0.233,0.427-0.522,0.817-0.793,1.224
			c-0.157,0.134-0.894,1.047-1.151,1.312c-0.144,0.144-0.498,0.427-0.809,0.676c-0.573,0.382-1.157,0.741-1.757,1.081
			c-0.183,0.102-0.686,0.32-1.092,0.498c-0.271,0.096-0.543,0.178-0.817,0.264c-10.151,0.771-19.459-1.746-25.813-10.146
			C278.035,255.653,284.637,251.142,296.189,249.089z M360.324,247.937c0.116-0.021,0.225-0.082,0.34-0.111
			c3.018-0.301,6.947-0.314,8.912,0.021c3.336,0.563,4.667,1.223,5.892,2.314c1.283,1.146,2.006,2.844,2.641,5.447
			c0.614,2.51,0.421,6.339-0.041,9.726c-0.416,0.767-0.767,1.569-1.005,2.442c-0.168,0.635-0.376,1.26-0.579,1.89
			c-0.143,0.31-0.549,1.325-0.696,1.604c-0.232,0.427-0.521,0.812-0.792,1.219c-0.151,0.137-0.889,1.051-1.151,1.31
			c-0.139,0.144-0.493,0.427-0.809,0.677c-0.573,0.381-1.157,0.745-1.757,1.082c-0.183,0.105-0.686,0.323-1.087,0.502
			c-0.274,0.092-0.548,0.178-0.822,0.265c-10.15,0.771-19.459-1.747-25.812-10.146C342.171,254.502,348.767,249.987,360.324,247.937
			z M443.552,252.847c-1.706-0.914-3.723-1.482-6.113-1.482H399.96c-1.605-6.227-4.557-11.496-8.461-15.708
			c-15.3-16.517-44.868-16.94-62.235,3.403c-0.604-0.773-1.233-1.539-1.898-2.25c-15.122-16.323-44.169-16.927-61.611,2.691
			c-0.949-1.35-1.938-2.65-3.042-3.841c-15.7-16.936-46.413-17.019-63.57,4.928c-1.62,2.077-2.891,4.124-4.001,6.16
			c-54.07-2.011-108.039-6.414-162.177-5.865c0.874-32.682,1.646-65.473,1.742-98.706h68.827c14.543,25.299,65.719,35.025,75.834,0
			h65.272c10.39,24.867,55.613,37.288,72.701,13.584c19.754,16.711,56.935,19.634,66.603-8.206
			c18.697,0.612,37.396,0.838,56.087,1.559c1.736,0.069,3.25-0.208,4.631-0.655C444.359,183.35,444.07,218.095,443.552,252.847z
			 M140.194,114.608c0.122-0.022,0.223-0.083,0.345-0.111c3.018-0.3,6.947-0.315,8.907,0.018c3.336,0.566,4.672,1.227,5.896,2.318
			c1.285,1.145,2.007,2.844,2.642,5.448c0.615,2.509,0.417,6.335-0.041,9.725c-0.421,0.764-0.772,1.571-1.005,2.44
			c-0.167,0.64-0.381,1.262-0.579,1.892c-0.143,0.307-0.553,1.325-0.696,1.602c-0.232,0.427-0.522,0.815-0.792,1.221
			c-0.157,0.137-0.894,1.051-1.153,1.31c-0.142,0.143-0.497,0.427-0.807,0.676c-0.574,0.381-1.158,0.744-1.757,1.081
			c-0.183,0.107-0.687,0.325-1.092,0.5c-0.271,0.094-0.543,0.178-0.818,0.267c-10.151,0.769-19.458-1.747-25.811-10.146
			C122.04,121.169,128.642,116.655,140.194,114.608z M282.961,118.097c0.117-0.02,0.225-0.083,0.342-0.109
			c3.016-0.302,6.95-0.317,8.91,0.015c3.337,0.566,4.662,1.226,5.892,2.318c1.285,1.146,2.011,2.847,2.641,5.451
			c0.614,2.506,0.422,6.332-0.04,9.722c-0.417,0.767-0.768,1.572-1.011,2.44c-0.163,0.64-0.371,1.262-0.574,1.892
			c-0.137,0.307-0.548,1.328-0.695,1.602c-0.229,0.427-0.522,0.818-0.792,1.222c-0.151,0.137-0.889,1.051-1.147,1.31
			c-0.143,0.142-0.497,0.426-0.813,0.678c-0.572,0.378-1.156,0.744-1.757,1.082c-0.183,0.104-0.681,0.322-1.087,0.498
			c-0.272,0.094-0.548,0.178-0.816,0.267c-10.155,0.769-19.465-1.747-25.816-10.146
			C264.802,124.658,271.403,120.146,282.961,118.097z M345.359,118.097c0.116-0.02,0.224-0.083,0.34-0.109
			c3.018-0.302,6.952-0.317,8.912,0.015c3.336,0.566,4.661,1.226,5.892,2.318c1.283,1.146,2.011,2.847,2.641,5.451
			c0.614,2.506,0.421,6.332-0.041,9.722c-0.416,0.767-0.767,1.572-1.011,2.44c-0.162,0.64-0.37,1.262-0.573,1.892
			c-0.138,0.307-0.549,1.328-0.696,1.602c-0.229,0.427-0.521,0.818-0.792,1.222c-0.151,0.137-0.889,1.051-1.146,1.31
			c-0.144,0.142-0.498,0.426-0.813,0.678c-0.573,0.378-1.157,0.744-1.757,1.082c-0.183,0.104-0.681,0.322-1.087,0.498
			c-0.273,0.094-0.548,0.178-0.817,0.267c-10.155,0.769-19.464-1.747-25.815-10.146C327.2,124.658,333.802,120.146,345.359,118.097z
			 M446.03,40.516c-0.543,28.094-0.854,55.939-1.122,83.69c-1.438-0.614-3.037-1.033-4.875-1.107
			c-18.337-0.708-36.688-0.947-55.029-1.529c-1.604-6.246-4.561-11.539-8.476-15.767c-14.904-16.082-43.341-16.925-60.859,1.83
			c-0.503-0.617-0.995-1.246-1.538-1.83c-15.691-16.936-46.414-17.019-63.566,4.931c-1.427,1.825-2.59,3.633-3.62,5.428H179.29
			c-1.686-5.408-4.413-10.062-7.917-13.848c-15.69-16.935-46.413-17.019-63.561,4.931c-2.356,3.016-4.123,5.995-5.423,8.917H34.815
			c1.147-21.975,1.3-43.955,1.3-65.956c0-2.734-0.706-5.002-1.808-6.9c-0.062-1.852-0.03-3.702,0.106-5.573
			c0.081,0.327,0.641-2.605,0.65-2.651c0.111-0.32,0.188-0.533,0.254-0.734c0.224-0.421,0.467-0.828,0.716-1.234
			c-0.223,0.459,0.457-0.399,1-1.077c-0.096,0.432,3.397-1.985,1.224-1.097c3.615-1.475,5.602-1.46,8.938-1.523
			c0.442-0.01,0.833-0.104,1.254-0.145c0.508,0.046,0.975,0.149,1.518,0.145c84.087-0.175,298.148-3.78,382.2,0
			c0.224,0.01,0.411-0.035,0.63-0.035c1.422,0.388,2.858,0.779,4.25,1.267c0.224,0.163,2.144,1.005,2.284,1.082
			c0.858,0.459,1.65,1.021,2.442,1.572c-0.36-0.155,1.555,1.455,1.752,1.647c0.203,0.214,0.315,0.308,0.447,0.432
			c0.105,0.183,0.238,0.392,0.467,0.734c0.097,0.145,0.896,1.751,1.144,2.138c0.192,0.561,0.351,1.132,0.508,1.708
			C446.087,40.166,446.035,40.323,446.03,40.516z"/>
	</g>
</g>
</svg>
