<?xml version="1.0" encoding="utf-8"?>
<!-- Generator: Adobe Illustrator 16.0.0, SVG Export Plug-In . SVG Version: 6.00 Build 0)  -->
<!DOCTYPE svg PUBLIC "-//W3C//DTD SVG 1.1//EN" "http://www.w3.org/Graphics/SVG/1.1/DTD/svg11.dtd">
<svg version="1.1" id="Layer_1" xmlns="http://www.w3.org/2000/svg" xmlns:xlink="http://www.w3.org/1999/xlink" x="0px" y="0px"
	 width="126.834px" height="185.374px" viewBox="0 0 126.834 185.374" enable-background="new 0 0 126.834 185.374"
	 xml:space="preserve">
<g>
	<path fill="#FFFFFF" d="M63.606,130.728c0.043,5.487-0.175,9.938-0.486,9.94c-0.311,0.002-0.596-4.443-0.641-9.932
		c-0.042-5.488,0.177-9.938,0.487-9.939C63.279,120.793,63.565,125.24,63.606,130.728"/>
</g>
<g>
	<path fill="#FFFFFF" d="M59.784,130.224c-0.914,5.315-1.94,9.578-2.295,9.517c-0.352-0.06,0.104-4.418,1.018-9.736
		c0.912-5.316,1.938-9.577,2.292-9.516C61.15,120.549,60.696,124.907,59.784,130.224"/>
</g>
<g>
	<path fill="#FFFFFF" d="M55.959,129.333c-1.801,4.958-3.609,8.851-4.04,8.694c-0.43-0.156,0.68-4.303,2.482-9.262
		c1.8-4.955,3.607-8.848,4.04-8.69C58.87,120.229,57.76,124.376,55.959,129.333"/>
</g>
<g>
	<path fill="#FFFFFF" d="M52.007,127.475c-2.502,4.245-4.9,7.467-5.361,7.198c-0.456-0.269,1.201-3.929,3.703-8.177
		c2.502-4.242,4.899-7.465,5.358-7.194S54.507,123.23,52.007,127.475"/>
</g>
<g>
	<path fill="#FFFFFF" d="M48.399,124.644c-3.118,3.413-6.006,5.851-6.45,5.444c-0.445-0.407,1.72-3.504,4.837-6.915
		c3.117-3.414,6.003-5.853,6.449-5.444C53.679,118.134,51.514,121.231,48.399,124.644"/>
</g>
<g>
	<path fill="#FFFFFF" d="M45.216,121.082c-3.658,2.519-6.941,4.099-7.335,3.524c-0.392-0.569,2.252-3.075,5.91-5.594
		c3.656-2.519,6.938-4.099,7.334-3.525C51.517,116.059,48.872,118.561,45.216,121.082"/>
</g>
<g>
	<path fill="#FFFFFF" d="M42.552,116.609c-4.074,1.584-7.579,2.347-7.831,1.694c-0.25-0.644,2.847-2.452,6.92-4.037
		c4.071-1.583,7.578-2.346,7.829-1.697C49.722,113.215,46.624,115.022,42.552,116.609"/>
</g>
<g>
	<path fill="#FFFFFF" d="M40.892,111.714c-4.201,0.866-7.731,0.956-7.889,0.199c-0.154-0.759,3.123-2.072,7.323-2.938
		c4.2-0.865,7.731-0.957,7.886-0.199C48.369,109.532,45.091,110.847,40.892,111.714"/>
</g>
<g>
	<path fill="#FFFFFF" d="M40.199,106.321c-3.977,0-7.2-0.715-7.201-1.604c0.001-0.883,3.224-1.602,7.199-1.604
		c3.975,0,7.2,0.715,7.2,1.604C47.398,105.598,44.174,106.318,40.199,106.321"/>
</g>
<g>
	<path fill="#FFFFFF" d="M40.474,100.425c-3.656-0.747-6.463-2.127-6.268-3.092c0.197-0.958,3.319-1.134,6.975-0.388
		c3.658,0.746,6.465,2.125,6.267,3.088C47.253,100.993,44.131,101.167,40.474,100.425"/>
</g>
<g>
	<path fill="#FFFFFF" d="M41.957,94.373c-3.197-1.307-5.468-3.15-5.072-4.122c0.396-0.968,3.309-0.698,6.507,0.609
		c3.197,1.308,5.47,3.15,5.071,4.124C48.068,95.951,45.157,95.678,41.957,94.373"/>
</g>
<g>
	<path fill="#FFFFFF" d="M44.565,88.471c-2.848-1.624-4.699-3.738-4.137-4.725c0.563-0.985,3.325-0.467,6.171,1.156
		c2.847,1.625,4.7,3.735,4.136,4.725C50.174,90.612,47.413,90.093,44.565,88.471"/>
</g>
<g>
	<path fill="#FFFFFF" d="M48.085,82.507c-2.322-1.742-3.61-3.947-2.875-4.93c0.735-0.981,3.215-0.369,5.538,1.37
		c2.324,1.744,3.614,3.946,2.875,4.933C52.89,84.86,50.412,84.245,48.085,82.507"/>
</g>
<g>
	<path fill="#FFFFFF" d="M52.278,77.021c-1.812-1.795-2.516-4.023-1.572-4.976c0.943-0.949,3.177-0.267,4.99,1.526
		c1.811,1.798,2.518,4.02,1.569,4.977C56.324,79.499,54.092,78.815,52.278,77.021"/>
</g>
<g>
	<path fill="#FFFFFF" d="M57.397,71.534c-1.162-1.215-1.263-3.01-0.221-4.009c1.043-0.995,2.83-0.817,3.994,0.397
		c1.164,1.218,1.266,3.009,0.22,4.009C60.35,72.928,58.563,72.75,57.397,71.534"/>
</g>
<g>
	<path fill="#FFFFFF" d="M62.116,0.981C62.112,0.445,62.487,0.002,62.956,0c0.469-0.003,0.851,0.429,0.854,0.968
		c0.005,0.539-0.372,0.98-0.84,0.983C62.503,1.954,62.122,1.521,62.116,0.981"/>
</g>
<g>
	<path fill="#FFFFFF" d="M65.813,1.155c0.109-0.624,0.653-1.056,1.22-0.957c0.563,0.098,0.935,0.683,0.827,1.309
		c-0.108,0.627-0.652,1.053-1.22,0.958C66.079,2.367,65.706,1.782,65.813,1.155"/>
</g>
<g>
	<path fill="#FFFFFF" d="M69.737,2.097c0.271-0.746,0.94-1.186,1.5-0.982c0.556,0.201,0.789,0.97,0.518,1.716
		c-0.271,0.745-0.941,1.188-1.499,0.985C69.697,3.613,69.466,2.843,69.737,2.097"/>
</g>
<g>
	<path fill="#FFFFFF" d="M73.639,3.905c0.479-0.81,1.343-1.186,1.936-0.839c0.586,0.346,0.676,1.283,0.198,2.097
		c-0.48,0.81-1.344,1.185-1.935,0.838C73.25,5.656,73.161,4.717,73.639,3.905"/>
</g>
<g>
	<path fill="#FFFFFF" d="M77.35,6.57c0.717-0.782,1.743-1.013,2.296-0.509c0.549,0.501,0.414,1.545-0.303,2.331
		c-0.718,0.783-1.744,1.014-2.295,0.511C76.498,8.401,76.634,7.357,77.35,6.57"/>
</g>
<g>
	<path fill="#FFFFFF" d="M80.724,10.055c0.914-0.628,2.025-0.603,2.482,0.062c0.456,0.662,0.087,1.71-0.828,2.339
		c-0.913,0.629-2.022,0.604-2.479-0.062C79.441,11.731,79.813,10.686,80.724,10.055"/>
</g>
<g>
	<path fill="#FFFFFF" d="M83.478,14.582c1.073-0.416,2.168-0.176,2.445,0.538c0.276,0.714-0.367,1.63-1.439,2.046
		c-1.073,0.416-2.167,0.18-2.445-0.537C81.762,15.916,82.406,15.001,83.478,14.582"/>
</g>
<g>
	<path fill="#FFFFFF" d="M85.184,19.611c1.185-0.245,2.271,0.171,2.428,0.929c0.155,0.756-0.678,1.565-1.862,1.81
		c-1.186,0.243-2.271-0.169-2.429-0.928C83.165,20.667,83.999,19.857,85.184,19.611"/>
</g>
<g>
	<path fill="#FFFFFF" d="M85.91,25.023c1.234,0,2.234,0.718,2.234,1.605c0,0.883-1,1.602-2.232,1.602
		c-1.234-0.001-2.234-0.715-2.234-1.605C83.678,25.742,84.677,25.025,85.91,25.023"/>
</g>
<g>
	<path fill="#FFFFFF" d="M85.628,30.944c1.404,0.286,2.388,1.296,2.19,2.258c-0.195,0.958-1.494,1.506-2.9,1.22
		c-1.404-0.289-2.388-1.295-2.189-2.26C82.923,31.203,84.22,30.657,85.628,30.944"/>
</g>
<g>
	<path fill="#FFFFFF" d="M84.035,36.972c1.368,0.561,2.156,1.8,1.761,2.771c-0.396,0.966-1.826,1.301-3.196,0.743
		c-1.369-0.561-2.158-1.798-1.761-2.772C81.234,36.746,82.665,36.415,84.035,36.972"/>
</g>
<g>
	<path fill="#FFFFFF" d="M81.435,42.878c1.381,0.789,2.043,2.226,1.48,3.213c-0.563,0.983-2.136,1.145-3.515,0.358
		c-1.38-0.788-2.046-2.221-1.481-3.211C78.481,42.254,80.055,42.094,81.435,42.878"/>
</g>
<g>
	<path fill="#FFFFFF" d="M77.812,48.77c1.26,0.943,1.686,2.503,0.948,3.488c-0.734,0.98-2.351,1.011-3.611,0.068
		c-1.26-0.945-1.688-2.5-0.947-3.488C74.935,47.858,76.55,47.829,77.812,48.77"/>
</g>
<g>
	<path fill="#FFFFFF" d="M73.727,54.338c1.118,1.11,1.26,2.78,0.317,3.733c-0.943,0.953-2.614,0.826-3.734-0.284
		c-1.118-1.109-1.265-2.775-0.318-3.731C70.935,53.104,72.604,53.232,73.727,54.338"/>
</g>
<g>
	<path fill="#FFFFFF" d="M68.589,59.809c1.162,1.217,1.263,3.011,0.221,4.009c-1.042,0.995-2.83,0.82-3.994-0.398
		c-1.163-1.216-1.266-3.008-0.22-4.008C65.637,58.415,67.423,58.593,68.589,59.809"/>
</g>
<g>
	<path fill="#FFFFFF" d="M66.293,130.224c0.913,5.315,1.938,9.578,2.292,9.517c0.354-0.06-0.102-4.418-1.016-9.736
		c-0.913-5.314-1.938-9.576-2.292-9.516C64.926,120.549,65.38,124.907,66.293,130.224"/>
</g>
<g>
	<path fill="#FFFFFF" d="M70.116,129.333c1.802,4.958,3.61,8.851,4.041,8.694c0.43-0.156-0.682-4.303-2.481-9.262
		c-1.801-4.955-3.608-8.848-4.039-8.69C67.205,120.229,68.315,124.376,70.116,129.333"/>
</g>
<g>
	<path fill="#FFFFFF" d="M74.069,127.475c2.501,4.245,4.9,7.467,5.359,7.198c0.457-0.269-1.199-3.929-3.701-8.175
		c-2.502-4.244-4.901-7.467-5.36-7.196C69.91,119.573,71.568,123.23,74.069,127.475"/>
</g>
<g>
	<path fill="#FFFFFF" d="M77.677,124.644c3.117,3.413,6.005,5.853,6.451,5.444c0.444-0.407-1.722-3.504-4.838-6.914
		c-3.117-3.415-6.003-5.852-6.449-5.445C72.397,118.135,74.562,121.231,77.677,124.644"/>
</g>
<g>
	<path fill="#FFFFFF" d="M80.86,121.082c3.657,2.519,6.94,4.099,7.336,3.524c0.392-0.569-2.254-3.075-5.91-5.594
		c-3.658-2.519-6.94-4.099-7.334-3.525C74.559,116.059,77.204,118.561,80.86,121.082"/>
</g>
<g>
	<path fill="#FFFFFF" d="M83.524,116.61c4.074,1.584,7.578,2.346,7.832,1.693c0.25-0.644-2.848-2.452-6.92-4.037
		c-4.074-1.583-7.578-2.346-7.83-1.696C76.355,113.215,79.452,115.022,83.524,116.61"/>
</g>
<g>
	<path fill="#FFFFFF" d="M85.185,111.714c4.201,0.866,7.731,0.956,7.888,0.199c0.154-0.759-3.123-2.072-7.321-2.938
		c-4.201-0.865-7.731-0.957-7.888-0.197C77.707,109.532,80.985,110.847,85.185,111.714"/>
</g>
<g>
	<path fill="#FFFFFF" d="M85.876,106.321c3.979,0,7.2-0.715,7.201-1.604c-0.001-0.883-3.222-1.602-7.199-1.604
		c-3.976,0-7.198,0.715-7.198,1.604C78.679,105.598,81.899,106.318,85.876,106.321"/>
</g>
<g>
	<path fill="#FFFFFF" d="M85.602,100.425c3.656-0.747,6.464-2.127,6.269-3.092c-0.197-0.958-3.319-1.134-6.975-0.388
		c-3.658,0.746-6.465,2.125-6.268,3.09C78.823,100.993,81.944,101.167,85.602,100.425"/>
</g>
<g>
	<path fill="#FFFFFF" d="M84.118,94.375c3.198-1.309,5.47-3.152,5.073-4.124c-0.396-0.968-3.31-0.696-6.507,0.609
		c-3.198,1.308-5.47,3.15-5.071,4.124C78.009,95.951,80.92,95.677,84.118,94.375"/>
</g>
<g>
	<path fill="#FFFFFF" d="M81.511,88.471c2.847-1.624,4.698-3.738,4.135-4.725c-0.563-0.985-3.323-0.467-6.169,1.156
		c-2.848,1.625-4.7,3.736-4.136,4.725C75.902,90.612,78.663,90.093,81.511,88.471"/>
</g>
<g>
	<path fill="#FFFFFF" d="M77.989,82.507c2.324-1.742,3.612-3.947,2.877-4.93c-0.736-0.98-3.216-0.369-5.538,1.373
		c-2.323,1.741-3.615,3.943-2.876,4.93C73.187,84.861,75.665,84.245,77.989,82.507"/>
</g>
<g>
	<path fill="#FFFFFF" d="M73.797,77.021c1.812-1.795,2.517-4.023,1.572-4.975c-0.942-0.95-3.176-0.268-4.989,1.525
		c-1.811,1.798-2.518,4.02-1.569,4.977C69.751,79.499,71.984,78.815,73.797,77.021"/>
</g>
<g>
	<path fill="#FFFFFF" d="M68.677,71.537c1.165-1.218,1.264-3.013,0.223-4.012c-1.043-0.995-2.83-0.817-3.994,0.399
		c-1.164,1.217-1.267,3.008-0.221,4.008C65.726,72.928,67.511,72.75,68.677,71.537"/>
</g>
<g>
	<path fill="#FFFFFF" d="M60.234,1.138c-0.11-0.625-0.654-1.056-1.22-0.956c-0.563,0.097-0.937,0.682-0.827,1.308
		c0.108,0.627,0.653,1.053,1.219,0.957C59.97,2.349,60.343,1.764,60.234,1.138"/>
</g>
<g>
	<path fill="#FFFFFF" d="M56.312,2.081c-0.271-0.746-0.942-1.187-1.503-0.983c-0.554,0.203-0.788,0.971-0.516,1.717
		c0.271,0.745,0.941,1.189,1.5,0.984C56.351,3.598,56.582,2.827,56.312,2.081"/>
</g>
<g>
	<path fill="#FFFFFF" d="M52.409,3.889c-0.479-0.812-1.344-1.188-1.936-0.839c-0.586,0.346-0.676,1.283-0.197,2.095
		c0.479,0.811,1.342,1.186,1.934,0.839C52.797,5.638,52.887,4.701,52.409,3.889"/>
</g>
<g>
	<path fill="#FFFFFF" d="M48.697,6.554c-0.717-0.784-1.741-1.015-2.295-0.511c-0.55,0.503-0.415,1.546,0.303,2.332
		c0.718,0.784,1.742,1.013,2.295,0.51C49.551,8.384,49.415,7.34,48.697,6.554"/>
</g>
<g>
	<path fill="#FFFFFF" d="M45.323,10.038c-0.914-0.628-2.024-0.602-2.482,0.063c-0.456,0.662-0.087,1.709,0.827,2.339
		c0.915,0.629,2.025,0.604,2.482-0.062C46.607,11.714,46.236,10.668,45.323,10.038"/>
</g>
<g>
	<path fill="#FFFFFF" d="M42.569,14.564c-1.073-0.416-2.167-0.176-2.444,0.539c-0.276,0.713,0.366,1.63,1.439,2.046
		c1.073,0.417,2.167,0.18,2.445-0.538C44.286,15.899,43.642,14.984,42.569,14.564"/>
</g>
<g>
	<path fill="#FFFFFF" d="M40.864,19.594c-1.186-0.245-2.272,0.171-2.429,0.929c-0.153,0.756,0.679,1.566,1.864,1.81
		c1.184,0.243,2.271-0.17,2.427-0.928C42.883,20.651,42.049,19.84,40.864,19.594"/>
</g>
<g>
	<path fill="#FFFFFF" d="M40.139,25.005c-1.234,0-2.235,0.718-2.235,1.605c0,0.884,0.999,1.602,2.232,1.602
		c1.232,0,2.233-0.715,2.233-1.604C42.37,25.727,41.37,25.007,40.139,25.005"/>
</g>
<g>
	<path fill="#FFFFFF" d="M40.421,30.926c-1.405,0.288-2.389,1.297-2.191,2.258c0.195,0.958,1.494,1.507,2.898,1.221
		c1.407-0.29,2.39-1.295,2.191-2.259C43.125,31.185,41.827,30.64,40.421,30.926"/>
</g>
<g>
	<path fill="#FFFFFF" d="M42.014,36.956c-1.368,0.561-2.157,1.799-1.762,2.771c0.396,0.966,1.826,1.301,3.196,0.743
		c1.368-0.562,2.158-1.798,1.76-2.772C44.813,36.729,43.383,36.398,42.014,36.956"/>
</g>
<g>
	<path fill="#FFFFFF" d="M44.612,42.862c-1.38,0.791-2.043,2.226-1.479,3.212c0.562,0.983,2.135,1.146,3.515,0.359
		c1.379-0.788,2.045-2.222,1.48-3.211C47.566,42.238,45.993,42.078,44.612,42.862"/>
</g>
<g>
	<path fill="#FFFFFF" d="M48.235,48.752c-1.26,0.944-1.684,2.504-0.948,3.488c0.735,0.98,2.351,1.012,3.612,0.07
		c1.259-0.946,1.687-2.501,0.947-3.49C51.112,47.841,49.498,47.812,48.235,48.752"/>
</g>
<g>
	<path fill="#FFFFFF" d="M52.322,54.322c-1.118,1.109-1.262,2.78-0.318,3.732c0.944,0.953,2.615,0.827,3.735-0.282
		c1.116-1.111,1.264-2.776,0.316-3.733C55.114,53.09,53.442,53.215,52.322,54.322"/>
</g>
<g>
	<path fill="#FFFFFF" d="M57.458,59.792c-1.163,1.217-1.263,3.011-0.219,4.009c1.042,0.995,2.829,0.82,3.993-0.397
		c1.163-1.217,1.267-3.007,0.22-4.008C60.411,58.398,58.625,58.577,57.458,59.792"/>
</g>
<g>
	<path fill="#FFFFFF" d="M0,158.706c0-0.618,0.49-1.127,1.127-1.127h0.236c0.545,0,0.854,0.272,1.163,0.654l6.36,8.232v-7.814
		c0-0.6,0.49-1.09,1.09-1.09c0.618,0,1.109,0.49,1.109,1.09v10.686c0,0.618-0.473,1.109-1.091,1.109H9.904
		c-0.527,0-0.854-0.273-1.163-0.673l-6.542-8.469v8.069c0,0.6-0.491,1.09-1.091,1.09c-0.618,0-1.108-0.49-1.108-1.09V158.706z"/>
	<path fill="#FFFFFF" d="M19.337,169.246v-10.468c0-0.636,0.49-1.127,1.127-1.127h7.396c0.545,0,0.999,0.455,0.999,1
		c0,0.563-0.454,1-0.999,1h-6.288v3.307h5.47c0.545,0,1,0.455,1,1.018c0,0.546-0.455,0.982-1,0.982h-5.47v3.416h6.379
		c0.545,0,0.999,0.454,0.999,1c0,0.563-0.454,0.999-0.999,0.999h-7.487C19.827,170.373,19.337,169.881,19.337,169.246z"/>
	<path fill="#FFFFFF" d="M39.637,159.723h-3.09c-0.581,0-1.036-0.473-1.036-1.036s0.455-1.036,1.036-1.036h8.45
		c0.563,0,1.019,0.473,1.019,1.036s-0.455,1.036-1.019,1.036H41.89v9.632c0,0.618-0.509,1.108-1.127,1.108
		c-0.617,0-1.126-0.49-1.126-1.108V159.723z"/>
	<path fill="#FFFFFF" d="M52.486,159.086c-0.055-0.127-0.091-0.29-0.091-0.436c0-0.618,0.526-1.09,1.145-1.09
		c0.545,0,0.963,0.345,1.108,0.817l2.926,8.741l2.872-8.705c0.182-0.527,0.563-0.891,1.126-0.891h0.164
		c0.563,0,0.963,0.363,1.127,0.891l2.871,8.705l2.926-8.76c0.163-0.454,0.545-0.799,1.091-0.799c0.6,0,1.108,0.472,1.108,1.072
		c0,0.145-0.055,0.326-0.109,0.453l-3.762,10.541c-0.2,0.563-0.618,0.927-1.163,0.927h-0.218c-0.546,0-0.945-0.345-1.146-0.927
		l-2.835-8.305l-2.835,8.305c-0.2,0.582-0.618,0.927-1.163,0.927h-0.218c-0.545,0-0.945-0.345-1.163-0.927L52.486,159.086z"/>
	<path fill="#FFFFFF" d="M77.22,164.048v-0.036c0-3.58,2.763-6.579,6.67-6.579s6.633,2.962,6.633,6.542v0.037
		c0,3.58-2.763,6.578-6.67,6.578S77.22,167.628,77.22,164.048z M88.178,164.048v-0.036c0-2.472-1.799-4.525-4.325-4.525
		c-2.525,0-4.288,2.018-4.288,4.488v0.037c0,2.471,1.799,4.507,4.325,4.507C86.415,168.519,88.178,166.52,88.178,164.048z"/>
	<path fill="#FFFFFF" d="M98.229,158.778c0-0.636,0.49-1.127,1.127-1.127h4.543c1.6,0,2.854,0.473,3.671,1.272
		c0.673,0.69,1.054,1.636,1.054,2.744v0.036c0,2.035-1.181,3.271-2.889,3.799l2.435,3.07c0.218,0.273,0.363,0.51,0.363,0.855
		c0,0.617-0.526,1.035-1.072,1.035c-0.509,0-0.836-0.236-1.09-0.582l-3.09-3.943h-2.816v3.417c0,0.618-0.491,1.108-1.108,1.108
		c-0.637,0-1.127-0.49-1.127-1.108V158.778z M103.734,163.958c1.6,0,2.617-0.836,2.617-2.127v-0.035
		c0-1.363-0.981-2.109-2.635-2.109h-3.253v4.271H103.734z"/>
	<path fill="#FFFFFF" d="M116.366,158.668c0-0.617,0.49-1.107,1.127-1.107c0.617,0,1.108,0.49,1.108,1.107v5.38l6.033-6.069
		c0.255-0.273,0.527-0.418,0.927-0.418c0.618,0,1.036,0.49,1.036,1.035c0,0.346-0.146,0.6-0.399,0.836l-3.962,3.816l4.288,5.324
		c0.183,0.236,0.31,0.455,0.31,0.801c0,0.617-0.491,1.09-1.127,1.09c-0.437,0-0.709-0.219-0.945-0.527l-4.089-5.215l-2.071,1.998
		v2.636c0,0.618-0.491,1.108-1.108,1.108c-0.637,0-1.127-0.49-1.127-1.108V158.668z"/>
</g>
<g>
	<path fill="#FFFFFF" d="M19.386,177.555c-0.037-0.087-0.062-0.198-0.062-0.297c0-0.422,0.359-0.744,0.78-0.744
		c0.372,0,0.657,0.236,0.756,0.558l1.995,5.96l1.957-5.936c0.124-0.359,0.385-0.606,0.769-0.606h0.111
		c0.385,0,0.657,0.247,0.769,0.606l1.958,5.936l1.994-5.973c0.111-0.309,0.372-0.545,0.743-0.545c0.409,0,0.756,0.322,0.756,0.731
		c0,0.099-0.037,0.223-0.074,0.31l-2.564,7.187c-0.137,0.384-0.421,0.632-0.793,0.632h-0.148c-0.372,0-0.645-0.235-0.781-0.632
		l-1.933-5.663l-1.933,5.663c-0.137,0.396-0.421,0.632-0.793,0.632h-0.148c-0.372,0-0.645-0.235-0.793-0.632L19.386,177.555z"/>
	<path fill="#FFFFFF" d="M36.023,184.481v-7.137c0-0.434,0.334-0.768,0.769-0.768h5.042c0.372,0,0.682,0.31,0.682,0.682
		c0,0.384-0.31,0.682-0.682,0.682h-4.287v2.254h3.729c0.372,0,0.682,0.311,0.682,0.694c0,0.372-0.31,0.669-0.682,0.669h-3.729v2.329
		h4.35c0.371,0,0.682,0.311,0.682,0.682c0,0.384-0.311,0.682-0.682,0.682h-5.104C36.357,185.25,36.023,184.915,36.023,184.481z"/>
	<path fill="#FFFFFF" d="M46.797,177.27c0-0.421,0.334-0.756,0.769-0.756c0.421,0,0.755,0.335,0.755,0.756v6.592h3.928
		c0.385,0,0.694,0.31,0.694,0.693c0,0.385-0.31,0.694-0.694,0.694h-4.683c-0.435,0-0.769-0.335-0.769-0.769V177.27z"/>
	<path fill="#FFFFFF" d="M56.95,177.27c0-0.421,0.334-0.756,0.768-0.756c0.422,0,0.756,0.335,0.756,0.756v6.592h3.928
		c0.385,0,0.694,0.31,0.694,0.693c0,0.385-0.31,0.694-0.694,0.694h-4.684c-0.434,0-0.768-0.335-0.768-0.769V177.27z"/>
	<path fill="#FFFFFF" d="M67.104,177.295c0-0.422,0.334-0.769,0.769-0.769h0.16c0.372,0,0.583,0.187,0.793,0.446l4.337,5.612v-5.327
		c0-0.409,0.335-0.744,0.743-0.744c0.422,0,0.756,0.335,0.756,0.744v7.285c0,0.421-0.322,0.756-0.743,0.756h-0.062
		c-0.359,0-0.583-0.187-0.793-0.459l-4.461-5.773v5.501c0,0.409-0.334,0.743-0.743,0.743c-0.422,0-0.756-0.334-0.756-0.743V177.295z
		"/>
	<path fill="#FFFFFF" d="M79.377,184.481v-7.137c0-0.434,0.334-0.768,0.769-0.768h5.042c0.372,0,0.682,0.31,0.682,0.682
		c0,0.384-0.31,0.682-0.682,0.682H80.9v2.254h3.729c0.372,0,0.682,0.311,0.682,0.694c0,0.372-0.31,0.669-0.682,0.669H80.9v2.329
		h4.35c0.371,0,0.682,0.311,0.682,0.682c0,0.384-0.311,0.682-0.682,0.682h-5.104C79.711,185.25,79.377,184.915,79.377,184.481z"/>
	<path fill="#FFFFFF" d="M89.927,184.283c-0.173-0.124-0.297-0.334-0.297-0.582c0-0.396,0.322-0.706,0.719-0.706
		c0.211,0,0.347,0.062,0.446,0.136c0.718,0.57,1.486,0.893,2.428,0.893c0.942,0,1.537-0.446,1.537-1.091v-0.024
		c0-0.62-0.348-0.954-1.958-1.325c-1.846-0.446-2.887-0.992-2.887-2.59v-0.025c0-1.486,1.239-2.515,2.961-2.515
		c1.091,0,1.97,0.284,2.751,0.806c0.173,0.099,0.334,0.31,0.334,0.606c0,0.396-0.322,0.706-0.719,0.706
		c-0.148,0-0.272-0.037-0.396-0.111c-0.669-0.434-1.313-0.656-1.994-0.656c-0.893,0-1.413,0.458-1.413,1.028v0.024
		c0,0.67,0.396,0.967,2.069,1.363c1.834,0.445,2.775,1.103,2.775,2.54v0.024c0,1.623-1.276,2.59-3.098,2.59
		C92.009,185.374,90.894,185.001,89.927,184.283z"/>
	<path fill="#FFFFFF" d="M100.206,184.283c-0.174-0.124-0.298-0.334-0.298-0.582c0-0.396,0.322-0.706,0.719-0.706
		c0.211,0,0.347,0.062,0.446,0.136c0.719,0.57,1.486,0.893,2.428,0.893c0.942,0,1.537-0.446,1.537-1.091v-0.024
		c0-0.62-0.348-0.954-1.958-1.325c-1.846-0.446-2.887-0.992-2.887-2.59v-0.025c0-1.486,1.239-2.515,2.961-2.515
		c1.091,0,1.97,0.284,2.751,0.806c0.173,0.099,0.334,0.31,0.334,0.606c0,0.396-0.322,0.706-0.719,0.706
		c-0.148,0-0.272-0.037-0.396-0.111c-0.669-0.434-1.313-0.656-1.994-0.656c-0.893,0-1.413,0.458-1.413,1.028v0.024
		c0,0.67,0.396,0.967,2.069,1.363c1.834,0.445,2.775,1.103,2.775,2.54v0.024c0,1.623-1.276,2.59-3.098,2.59
		C102.287,185.374,101.172,185.001,100.206,184.283z"/>
</g>
</svg>
