<?xml version="1.0" encoding="utf-8"?>
<!-- Generator: Adobe Illustrator 16.0.0, SVG Export Plug-In . SVG Version: 6.00 Build 0)  -->
<!DOCTYPE svg PUBLIC "-//W3C//DTD SVG 1.1//EN" "http://www.w3.org/Graphics/SVG/1.1/DTD/svg11.dtd">
<svg version="1.1" id="Capa_1" xmlns="http://www.w3.org/2000/svg" xmlns:xlink="http://www.w3.org/1999/xlink" x="0px" y="0px"
	 width="474.049px" height="474.049px" viewBox="0 0 474.049 474.049" enable-background="new 0 0 474.049 474.049"
	 xml:space="preserve">
<g>
	<g>
		<path fill="#FFFFFF" d="M120.271,168.769c15.847,11.232,33.784,17.166,51.879,17.166c23.688,0,47.018-9.958,65.688-28.043
			c4.98-4.827,10.19-10.469,11.593-12.132c0.604-0.729,1.163-1.566,1.646-2.485c17.936-33.878,14.935-68.918-8.231-96.146
			c-5.482-6.441-10.354-11.918-12.121-13.629c-0.898-0.869-2.001-1.638-3.28-2.298c-16.125-8.292-32.453-12.5-48.529-12.5
			c-22.101,0-43.439,7.836-63.414,23.285c-0.904,0.701-1.673,1.46-2.288,2.247c-1.439,1.856-6.063,8.173-10.144,14.157
			C76.494,97.375,83.573,142.759,120.271,168.769z M131.771,63.581c0.414-0.437,0.774-0.883,1.103-1.34
			c1.398-1.94,7.409-7.181,14.409-10.697c15.286-7.686,32.39-9.328,49.434-4.783c7.993,2.133,19.038,8.955,24.621,15.208
			c14.432,16.161,18.985,34.975,13.177,54.398c-2.039,6.81-5.547,13.586-6.972,15.079c-13.229,17.768-31.755,27.413-52.404,27.413
			c-25.21,0-49.13-14.665-58.166-35.667C112.114,111.903,107.574,89.139,131.771,63.581z"/>
		<path fill="#FFFFFF" d="M346.938,307.842h-8.501c-2.514,0-4.961-0.446-7.276-1.341c-2.636-0.736-4.921-1.95-6.881-3.488
			c0.976,21.606,1.69,43.219,2.219,64.84c0.347,13.895,0.463,27.804,0.533,41.706c-16.417,0.016-32.823,0.188-49.221,1.035
			c-0.884-35.153-2.676-79.235-4.147-105.606c-0.804-14.426-23.313-14.502-22.501,0c1.827,32.773,4.163,93.02,4.62,129.348
			c-51.563-0.193-103.12-1.006-154.683-1.178c-0.16-36.191-0.84-94.44-0.904-126.295c-0.024-14.514-22.53-14.514-22.506,0
			c0.048,23.709,0.438,62.078,0.704,95.074c-18.185,0.833-36.384,1.025-54.583,1.057c-2.546-50.525-0.586-101.031,0.417-151.604
			c4.58-9.449,11.824-16.328,21.896-19.646c31.906-3.362,63.989-4.74,96.062-5.21c32.192-0.468,64.389,0.018,96.575,0.354
			c2.98,0.03,5.962-0.005,8.942-0.005c-0.265-1.32-0.441-2.684-0.441-4.118c0-6.023-0.025-12.142-0.122-18.293
			c-15.508-0.145-31.014-0.343-46.524-0.48c-33.134-0.29-66.287-0.279-99.394,1.208c-18.586,0.835-37.153,2.125-55.655,4.09
			c-1.419-0.16-2.963-0.045-4.634,0.464c-16.087,4.913-29.742,15.958-36.73,31.428c-0.646,1.428-1.063,2.91-1.242,4.389
			c-0.733,1.427-1.196,3.093-1.234,5.041c-1.056,53.787-3.291,107.512,0,161.276c0.282,4.627,2.809,7.761,6.059,9.425
			c1.662,1.585,3.939,2.632,6.91,2.632c21.287,0,42.566-0.093,63.828-1.076c0.048,7.14,0.079,13.766,0.089,19.479
			c0.005,1.991,0.457,3.672,1.187,5.119c1.28,3.65,4.431,6.565,9.463,6.57c60.179,0.071,120.351,1.239,180.532,1.311
			c9.41,0.011,12.237-10.146,8.521-16.314c-0.021-2.377-0.051-4.9-0.087-7.512c17.235-0.884,34.479-1.024,51.74-1.024
			c2.727,0,4.874-0.884,6.493-2.245c6.19,0.925,13.157-2.646,13.138-10.725c-0.071-35.222-1.482-70.324-2.574-105.516
			C347.003,310.615,346.973,309.233,346.938,307.842z"/>
		<path fill="#FFFFFF" d="M468.057,149.521l-1.178-0.719c-1.777-1.519-4.021-2.288-6.679-2.288h-61.147l-0.198-4.212
			c-0.371-7.962-0.66-15.922-0.944-23.889c-0.4-11.121-0.812-22.623-1.473-33.901c-0.341-5.893-3.153-11.92-21.389-11.92
			c-3.859,0-7.86,0.251-11.386,0.475c-3.164,0.198-6.067,0.378-8.484,0.378c-2.98-0.02-5.418-0.094-7.714-0.16
			c-2.225-0.069-4.312-0.129-6.291-0.129c-8.501,0-14.301,1.211-22.358,7.825c-2.25,1.841-3.367,4.466-3.336,7.794
			c0.192,20.548,2.305,41.048,4.347,58.379l0.538,4.585l-18.682,1.374c-11.48,0.845-22.968,1.688-34.449,2.511
			c-1.828,0.129-3.453,0.625-4.972,1.503l-1.071,0.442c-7.394,1.98-7.692,7.226-6.602,18.715l0.198,2.12
			c0.771,8.742,1.07,17.44,1.208,26.04c0.092,6.165,0.116,12.289,0.116,18.312c0,1.627,0.306,2.963,0.763,4.113
			c1.554,3.93,5.175,5.319,6.973,5.761l0.533,0.165c1.335,0.511,2.66,0.759,4.057,0.759h43.143h13.12l0.098,4.324
			c0.146,6.424,0.365,12.857,0.584,19.286c0.346,10.146,0.7,20.651,0.757,31.021c0.03,7.073,5.302,9.237,7.565,9.842l0.492,0.173
			c1.355,0.544,2.747,0.812,4.24,0.812h8.277h43.478c2.936,0,5.354-0.938,7.187-2.777l3.578,2.701l0,0l-3.011-3.25
			c2.117-2.121,3.047-4.539,3.047-7.475c0-16.736-0.111-34.743-0.914-53.08l-0.202-4.613h61.85c6.794,0,9.714-4.883,10.182-9.458
			l0.106-1.003l0.528-0.863c1.016-1.643,1.508-3.468,1.508-5.57v-54.789C474.049,153.197,470.788,150.653,468.057,149.521z
			 M452.451,208.918h-63.783c-8.165,0-9.826,6.759-10.142,8.833l-0.163,0.704c-0.426,1.305-0.589,2.625-0.502,4.034
			c0.908,14.498,1.365,30.063,1.487,50.478l0.024,4.438H347.58l-0.116-4.297c-0.143-5.099-0.314-10.196-0.492-15.295
			c-0.352-9.974-0.706-20.281-0.768-30.462c0-0.937-0.127-1.866-0.405-2.933l-0.152-0.609l0.021-0.627
			c0.102-3.298-0.98-6.371-2.972-8.419c-1.798-1.856-4.256-2.803-7.292-2.803h-15.438h-42.289l-0.041-4.377
			c-0.01-1.181-0.061-2.315-0.086-3.486c-0.132-7.959-0.427-15.759-0.935-23.158l-0.301-4.395l19.806-1.45
			c10.957-0.807,21.915-1.617,32.88-2.396c0.929-0.068,1.854-0.262,2.92-0.604l0.775-0.244l1.549,0.061
			c3.089,0,5.765-1.019,7.344-2.808c1.422-1.612,1.96-3.852,1.609-6.67c-2.904-23.3-4.997-42.899-5.754-62.79l-0.173-4.585h38.126
			l0.178,4.232c0.26,6.108,0.473,12.225,0.69,18.339c0.427,11.934,0.863,24.273,1.609,36.369c0.056,0.82,0.202,1.587,0.381,2.313
			l0.132,1.051c0.016,3.994,2.199,10.753,10.293,10.753h63.785v40.804L452.451,208.918L452.451,208.918z"/>
	</g>
</g>
</svg>
