<?xml version="1.0" encoding="utf-8"?>
<!-- Generator: Adobe Illustrator 16.0.0, SVG Export Plug-In . SVG Version: 6.00 Build 0)  -->
<!DOCTYPE svg PUBLIC "-//W3C//DTD SVG 1.1//EN" "http://www.w3.org/Graphics/SVG/1.1/DTD/svg11.dtd">
<svg version="1.1" id="Capa_1" xmlns="http://www.w3.org/2000/svg" xmlns:xlink="http://www.w3.org/1999/xlink" x="0px" y="0px"
	 width="479.143px" height="479.141px" viewBox="0 0 479.143 479.141" enable-background="new 0 0 479.143 479.141"
	 xml:space="preserve">
<g>
	<g>
		<path fill="#FFFFFF" d="M120.251,171.315c15.845,11.233,33.784,17.167,51.877,17.167c23.688,0,47.018-9.958,65.688-28.043
			c4.98-4.827,10.19-10.468,11.593-12.131c0.609-0.729,1.163-1.566,1.646-2.476c17.936-33.883,14.935-68.928-8.228-96.151
			c-5.499-6.457-10.369-11.933-12.121-13.627c-0.903-0.868-2.011-1.645-3.285-2.3c-16.123-8.292-32.447-12.5-48.529-12.5
			c-22.101,0-43.438,7.836-63.414,23.285c-0.899,0.696-1.671,1.455-2.285,2.247c-1.422,1.836-6.033,8.127-10.146,14.157
			C76.479,99.921,83.553,145.306,120.251,171.315z M131.753,66.127c0.406-0.432,0.768-0.883,1.103-1.34
			c1.401-1.945,7.424-7.185,14.417-10.697c15.285-7.681,32.387-9.328,49.434-4.783c7.993,2.133,19.042,8.955,24.618,15.208
			c14.432,16.161,18.986,34.974,13.177,54.398c-2.184,7.305-5.743,13.784-6.962,15.068c-13.238,17.778-31.772,27.424-52.42,27.424
			c-25.207,0-49.129-14.665-58.163-35.668C112.101,114.45,107.556,91.685,131.753,66.127z"/>
		<path fill="#FFFFFF" d="M345.698,273.877c-7.719,0-15.432,0.158-23.131,0.629c0.488,7.431,0.977,14.863,1.341,22.299
			c1.193,24.521,1.977,49.048,2.58,73.59c0.335,13.902,0.462,27.807,0.528,41.711c-16.418,0.016-32.819,0.188-49.222,1.035
			c-0.884-35.159-2.672-79.236-4.148-105.602c-0.809-14.433-23.317-14.514-22.505,0c1.833,32.764,4.163,93.018,4.62,129.346
			c-51.563-0.191-103.118-1.006-154.681-1.184c-0.158-36.189-0.843-94.438-0.904-126.293c-0.024-14.514-22.53-14.514-22.505,0
			c0.052,23.713,0.438,62.082,0.706,95.074c-18.184,0.838-36.383,1.021-54.583,1.051c-2.544-50.525-0.589-101.041,0.421-151.604
			c4.581-9.449,11.822-16.328,21.896-19.646c31.91-3.361,63.987-4.74,96.06-5.21c32.194-0.467,64.39,0.016,96.578,0.354
			c5.383,0.056,10.767,0.021,16.147-0.01c0.6-7.462,0.73-14.935,0.741-22.422c-1.787,0.015-3.579,0.061-5.356,0.046
			c-16.56-0.15-33.119-0.368-49.673-0.516c-33.134-0.29-66.288-0.279-99.396,1.206c-18.585,0.838-37.155,2.128-55.654,4.093
			c-1.417-0.16-2.966-0.046-4.632,0.465c-16.092,4.913-29.746,15.957-36.729,31.428c-0.645,1.432-1.062,2.908-1.244,4.387
			c-0.73,1.422-1.192,3.088-1.229,5.037c-1.057,53.797-3.291,107.521,0,161.277c0.284,4.631,2.808,7.758,6.058,9.43
			c1.66,1.578,3.94,2.635,6.911,2.635c21.287,0,42.563-0.096,63.825-1.076c0.045,7.141,0.081,13.762,0.091,19.479
			c0.005,1.98,0.457,3.666,1.183,5.113c1.28,3.652,4.434,6.566,9.465,6.572c60.18,0.064,120.349,1.236,180.527,1.313
			c9.415,0.012,12.238-10.154,8.521-16.318c-0.021-2.377-0.052-4.896-0.088-7.518c17.229-0.877,34.479-1.016,51.746-1.023
			c2.722,0,4.868-0.873,6.499-2.24c6.181,0.92,13.146-2.646,13.132-10.729c-0.071-35.217-1.479-70.32-2.574-105.512
			C346.607,301.008,346.501,287.411,345.698,273.877z"/>
		<path fill="#FFFFFF" d="M472.593,194.009l-0.868-0.635L387.195,99.45c-1.857-2.06-3.966-3.11-6.281-3.11
			c-4.94,0-9.709,4.832-10.009,10.141l-0.151,0.815c-0.087,0.361-0.188,0.713-0.225,1.102c-1.244,12.022-1.503,23.765-1.589,33.669
			l-0.021,2.58h-92.358c-6.043,0-8.155,4.258-8.785,6.088l-0.503,0.869c-1.438,1.643-2.168,3.72-2.168,6.157v49.107v22.516v21.929
			c0,2.438,0.73,4.505,2.168,6.154l0.503,0.869c0.63,1.828,2.742,6.094,8.785,6.094h45.382h23.06h23.928l0.021,2.568
			c0.086,9.908,0.347,21.652,1.59,33.668c0.04,0.396,0.138,0.762,0.224,1.121l0.151,0.809c0.301,5.306,5.068,10.136,10.01,10.136
			c2.311,0,4.418-1.047,6.275-3.108l85.396-94.56c4.026-1.81,6.773-6.172,6.53-10.384
			C479.365,200.181,476.624,195.817,472.593,194.009z M388.744,278.635l-0.105-6.61c-0.097-5.8-0.138-11.594-0.138-17.401
			c0-6.49-4.926-9.396-9.807-9.396v-2.595l-0.07,2.595l-0.641-0.076c-0.929-0.233-1.757-0.335-2.604-0.335h-33.267h-23.796h-33.611
			v-15.519v-22.716v-42.317h90.674c0.843,0,1.671-0.109,2.604-0.337l0.32-0.079h0.32c2.659,0,5.147-0.863,6.904-2.371
			c1.945-1.668,2.972-4.103,2.972-7.023c0-5.804,0.04-11.603,0.138-17.4l0.105-6.608l66.688,74.098L388.744,278.635z"/>
	</g>
</g>
</svg>
